#File written by RizomUV 2024.0.148.g2292b90e. Compilation :Aug 22 2024,14:22:02
mtllib Ball_V2.mtl
#begin vertices
v 0 19.685 -0
v -0 19.3068 -3.8404
v -0.7492 19.3068 -3.7666
v -1.4696 19.3068 -3.548
v -2.1336 19.3068 -3.1931
v -2.7155 19.3068 -2.7155
v -3.1931 19.3068 -2.1336
v -3.548 19.3068 -1.4696
v -3.7666 19.3068 -0.7492
v -3.8404 19.3068 0
v -3.7666 19.3068 0.7492
v -3.548 19.3068 1.4696
v -3.1931 19.3068 2.1336
v -2.7155 19.3068 2.7155
v -2.1336 19.3068 3.1931
v -1.4696 19.3068 3.548
v -0.7492 19.3068 3.7666
v 0 19.3068 3.8404
v 0.7492 19.3068 3.7666
v 1.4696 19.3068 3.548
v 2.1336 19.3068 3.1931
v 2.7155 19.3068 2.7155
v 3.1931 19.3068 2.1336
v 3.548 19.3068 1.4696
v 3.7666 19.3068 0.7492
v 3.8404 19.3068 -0
v 3.7666 19.3068 -0.7492
v 3.548 19.3068 -1.4696
v 3.1931 19.3068 -2.1336
v 2.7155 19.3068 -2.7156
v 2.1336 19.3068 -3.1931
v 1.4696 19.3068 -3.548
v 0.7492 19.3068 -3.7666
v -0 18.1866 -7.5331
v -1.4696 18.1866 -7.3884
v -2.8828 18.1866 -6.9597
v -4.1852 18.1866 -6.2636
v -5.3267 18.1866 -5.3267
v -6.2636 18.1866 -4.1852
v -6.9597 18.1866 -2.8828
v -7.3884 18.1866 -1.4696
v -7.5331 18.1866 0
v -7.3884 18.1866 1.4696
v -6.9597 18.1866 2.8828
v -6.2636 18.1866 4.1852
v -5.3267 18.1866 5.3267
v -4.1852 18.1866 6.2636
v -2.8828 18.1866 6.9597
v -1.4696 18.1866 7.3884
v 0 18.1866 7.5331
v 1.4697 18.1866 7.3884
v 2.8828 18.1866 6.9597
v 4.1852 18.1866 6.2636
v 5.3267 18.1866 5.3267
v 6.2636 18.1866 4.1852
v 6.9597 18.1866 2.8828
v 7.3884 18.1866 1.4696
v 7.5331 18.1866 -0
v 7.3884 18.1866 -1.4697
v 6.9597 18.1866 -2.8828
v 6.2636 18.1866 -4.1852
v 5.3267 18.1866 -5.3267
v 4.1852 18.1866 -6.2636
v 2.8828 18.1866 -6.9597
v 1.4696 18.1866 -7.3884
v -0 16.3675 -10.9364
v -2.1336 16.3675 -10.7263
v -4.1852 16.3675 -10.1039
v -6.076 16.3675 -9.0933
v -7.7332 16.3675 -7.7332
v -9.0933 16.3675 -6.076
v -10.1039 16.3675 -4.1852
v -10.7263 16.3675 -2.1336
v -10.9364 16.3675 0
v -10.7263 16.3675 2.1336
v -10.1039 16.3675 4.1852
v -9.0933 16.3675 6.076
v -7.7332 16.3675 7.7332
v -6.0759 16.3675 9.0933
v -4.1852 16.3675 10.1039
v -2.1336 16.3675 10.7263
v 0 16.3675 10.9364
v 2.1336 16.3675 10.7263
v 4.1852 16.3675 10.1039
v 6.076 16.3675 9.0933
v 7.7332 16.3675 7.7332
v 9.0933 16.3675 6.0759
v 10.1039 16.3675 4.1852
v 10.7263 16.3675 2.1336
v 10.9364 16.3675 -0
v 10.7263 16.3675 -2.1336
v 10.1039 16.3675 -4.1852
v 9.0933 16.3675 -6.076
v 7.7332 16.3675 -7.7332
v 6.0759 16.3675 -9.0933
v 4.1852 16.3675 -10.1039
v 2.1336 16.3675 -10.7263
v -0 13.9194 -13.9194
v -2.7155 13.9194 -13.652
v -5.3267 13.9194 -12.8599
v -7.7332 13.9194 -11.5736
v -9.8425 13.9194 -9.8425
v -11.5736 13.9194 -7.7332
v -12.8599 13.9194 -5.3267
v -13.652 13.9194 -2.7155
v -13.9194 13.9194 0
v -13.652 13.9194 2.7156
v -12.8599 13.9194 5.3267
v -11.5736 13.9194 7.7332
v -9.8425 13.9194 9.8425
v -7.7332 13.9194 11.5736
v -5.3267 13.9194 12.8599
v -2.7155 13.9194 13.652
v 0 13.9194 13.9194
v 2.7156 13.9194 13.652
v 5.3267 13.9194 12.8599
v 7.7332 13.9194 11.5736
v 9.8425 13.9194 9.8425
v 11.5736 13.9194 7.7332
v 12.8599 13.9194 5.3267
v 13.652 13.9194 2.7155
v 13.9194 13.9194 -0
v 13.652 13.9194 -2.7156
v 12.8599 13.9194 -5.3268
v 11.5736 13.9194 -7.7332
v 9.8425 13.9194 -9.8425
v 7.7332 13.9194 -11.5736
v 5.3267 13.9194 -12.8599
v 2.7155 13.9194 -13.652
v -0 10.9364 -16.3675
v -3.1931 10.9364 -16.053
v -6.2636 10.9364 -15.1216
v -9.0933 10.9364 -13.6091
v -11.5736 10.9364 -11.5736
v -13.6091 10.9364 -9.0933
v -15.1216 10.9364 -6.2636
v -16.053 10.9364 -3.1931
v -16.3675 10.9364 0
v -16.053 10.9364 3.1932
v -15.1216 10.9364 6.2636
v -13.6091 10.9364 9.0933
v -11.5736 10.9364 11.5736
v -9.0933 10.9364 13.6091
v -6.2636 10.9364 15.1216
v -3.1931 10.9364 16.053
v 0 10.9364 16.3675
v 3.1932 10.9364 16.053
v 6.2636 10.9364 15.1216
v 9.0933 10.9364 13.6091
v 11.5736 10.9364 11.5736
v 13.6091 10.9364 9.0933
v 15.1216 10.9364 6.2636
v 16.053 10.9364 3.1931
v 16.3675 10.9364 -0
v 16.053 10.9364 -3.1932
v 15.1216 10.9364 -6.2636
v 13.6091 10.9364 -9.0933
v 11.5736 10.9364 -11.5736
v 9.0933 10.9364 -13.6091
v 6.2635 10.9364 -15.1216
v 3.1931 10.9364 -16.053
v -0 7.5331 -18.1866
v -3.548 7.5331 -17.8372
v -6.9597 7.5331 -16.8022
v -10.1039 7.5331 -15.1216
v -12.8599 7.5331 -12.8599
v -15.1216 7.5331 -10.1039
v -16.8022 7.5331 -6.9597
v -17.8372 7.5331 -3.548
v -18.1866 7.5331 0
v -17.8372 7.5331 3.548
v -16.8022 7.5331 6.9597
v -15.1216 7.5331 10.1039
v -12.8599 7.5331 12.8599
v -10.1039 7.5331 15.1216
v -6.9597 7.5331 16.8022
v -3.548 7.5331 17.8372
v 0 7.5331 18.1866
v 3.548 7.5331 17.8372
v 6.9597 7.5331 16.8022
v 10.104 7.5331 15.1216
v 12.8599 7.5331 12.8599
v 15.1216 7.5331 10.1039
v 16.8022 7.5331 6.9597
v 17.8372 7.5331 3.548
v 18.1866 7.5331 -0
v 17.8371 7.5331 -3.5481
v 16.8022 7.5331 -6.9597
v 15.1216 7.5331 -10.104
v 12.8598 7.5331 -12.8599
v 10.1039 7.5331 -15.1216
v 6.9597 7.5331 -16.8022
v 3.548 7.5331 -17.8372
v -0 3.8404 -19.3068
v -3.7666 3.8404 -18.9358
v -7.3884 3.8404 -17.8372
v -10.7263 3.8404 -16.053
v -13.652 3.8404 -13.652
v -16.053 3.8404 -10.7263
v -17.8372 3.8404 -7.3884
v -18.9358 3.8404 -3.7666
v -19.3068 3.8404 0
v -18.9358 3.8404 3.7666
v -17.8372 3.8404 7.3884
v -16.053 3.8404 10.7263
v -13.652 3.8404 13.652
v -10.7263 3.8404 16.053
v -7.3884 3.8404 17.8372
v -3.7666 3.8404 18.9358
v 0 3.8404 19.3068
v 3.7666 3.8404 18.9358
v 7.3884 3.8404 17.8371
v 10.7263 3.8404 16.053
v 13.652 3.8404 13.6519
v 16.053 3.8404 10.7263
v 17.8372 3.8404 7.3884
v 18.9358 3.8404 3.7665
v 19.3068 3.8404 -0
v 18.9358 3.8404 -3.7666
v 17.8371 3.8404 -7.3884
v 16.053 3.8404 -10.7263
v 13.6519 3.8404 -13.652
v 10.7262 3.8404 -16.053
v 7.3884 3.8404 -17.8372
v 3.7665 3.8404 -18.9358
v -0 0 -19.685
v -3.8404 0 -19.3068
v -7.5331 0 -18.1866
v -10.9364 0 -16.3675
v -13.9194 0 -13.9194
v -16.3675 0 -10.9364
v -18.1866 0 -7.5331
v -19.3068 0 -3.8404
v -19.685 0 0
v -19.3068 0 3.8404
v -18.1866 0 7.5331
v -16.3675 0 10.9364
v -13.9194 0 13.9194
v -10.9364 0 16.3675
v -7.5331 0 18.1866
v -3.8403 0 19.3068
v 0 0 19.685
v 3.8404 0 19.3068
v 7.5332 0 18.1866
v 10.9364 0 16.3675
v 13.9194 0 13.9194
v 16.3675 0 10.9364
v 18.1866 0 7.5331
v 19.3068 0 3.8403
v 19.685 0 -0
v 19.3068 0 -3.8404
v 18.1866 0 -7.5332
v 16.3675 0 -10.9365
v 13.9194 0 -13.9195
v 10.9364 0 -16.3675
v 7.5331 0 -18.1866
v 3.8403 0 -19.3068
v -0 -3.8404 -19.3068
v -3.7666 -3.8404 -18.9358
v -7.3884 -3.8404 -17.8372
v -10.7263 -3.8404 -16.053
v -13.652 -3.8404 -13.652
v -16.053 -3.8404 -10.7263
v -17.8372 -3.8404 -7.3884
v -18.9358 -3.8404 -3.7666
v -19.3068 -3.8404 0
v -18.9358 -3.8404 3.7666
v -17.8372 -3.8404 7.3884
v -16.053 -3.8404 10.7263
v -13.652 -3.8404 13.652
v -10.7263 -3.8404 16.053
v -7.3884 -3.8404 17.8372
v -3.7666 -3.8404 18.9358
v 0 -3.8404 19.3068
v 3.7666 -3.8404 18.9358
v 7.3884 -3.8404 17.8371
v 10.7263 -3.8404 16.053
v 13.652 -3.8404 13.6519
v 16.053 -3.8404 10.7263
v 17.8372 -3.8404 7.3884
v 18.9358 -3.8404 3.7665
v 19.3068 -3.8404 -0
v 18.9358 -3.8404 -3.7666
v 17.8371 -3.8404 -7.3884
v 16.053 -3.8404 -10.7263
v 13.6519 -3.8404 -13.652
v 10.7262 -3.8404 -16.053
v 7.3884 -3.8404 -17.8372
v 3.7665 -3.8404 -18.9358
v -0 -7.5331 -18.1866
v -3.548 -7.5331 -17.8372
v -6.9597 -7.5331 -16.8022
v -10.1039 -7.5331 -15.1216
v -12.8599 -7.5331 -12.8599
v -15.1216 -7.5331 -10.1039
v -16.8022 -7.5331 -6.9597
v -17.8372 -7.5331 -3.548
v -18.1866 -7.5331 0
v -17.8372 -7.5331 3.548
v -16.8022 -7.5331 6.9597
v -15.1216 -7.5331 10.1039
v -12.8599 -7.5331 12.8599
v -10.1039 -7.5331 15.1216
v -6.9597 -7.5331 16.8022
v -3.548 -7.5331 17.8372
v 0 -7.5331 18.1866
v 3.548 -7.5331 17.8372
v 6.9597 -7.5331 16.8022
v 10.104 -7.5331 15.1216
v 12.8599 -7.5331 12.8599
v 15.1216 -7.5331 10.1039
v 16.8022 -7.5331 6.9597
v 17.8372 -7.5331 3.548
v 18.1866 -7.5331 -0
v 17.8371 -7.5331 -3.5481
v 16.8022 -7.5331 -6.9597
v 15.1216 -7.5331 -10.104
v 12.8598 -7.5331 -12.8599
v 10.1039 -7.5331 -15.1216
v 6.9597 -7.5331 -16.8022
v 3.548 -7.5331 -17.8372
v -0 -10.9364 -16.3675
v -3.1931 -10.9364 -16.053
v -6.2636 -10.9364 -15.1216
v -9.0933 -10.9364 -13.6091
v -11.5736 -10.9364 -11.5736
v -13.6091 -10.9364 -9.0933
v -15.1216 -10.9364 -6.2636
v -16.053 -10.9364 -3.1931
v -16.3675 -10.9364 0
v -16.053 -10.9364 3.1932
v -15.1216 -10.9364 6.2636
v -13.6091 -10.9364 9.0933
v -11.5736 -10.9364 11.5736
v -9.0933 -10.9364 13.6091
v -6.2636 -10.9364 15.1216
v -3.1931 -10.9364 16.053
v 0 -10.9364 16.3675
v 3.1932 -10.9364 16.053
v 6.2636 -10.9364 15.1216
v 9.0933 -10.9364 13.6091
v 11.5736 -10.9364 11.5736
v 13.6091 -10.9364 9.0933
v 15.1216 -10.9364 6.2636
v 16.053 -10.9364 3.1931
v 16.3675 -10.9364 -0
v 16.053 -10.9364 -3.1932
v 15.1216 -10.9364 -6.2636
v 13.6091 -10.9364 -9.0933
v 11.5736 -10.9364 -11.5736
v 9.0933 -10.9364 -13.6091
v 6.2635 -10.9364 -15.1216
v 3.1931 -10.9364 -16.053
v -0 -13.9194 -13.9194
v -2.7155 -13.9194 -13.652
v -5.3267 -13.9194 -12.8599
v -7.7332 -13.9194 -11.5736
v -9.8425 -13.9194 -9.8425
v -11.5736 -13.9194 -7.7332
v -12.8599 -13.9194 -5.3267
v -13.652 -13.9194 -2.7155
v -13.9194 -13.9194 0
v -13.652 -13.9194 2.7156
v -12.8599 -13.9194 5.3267
v -11.5736 -13.9194 7.7332
v -9.8425 -13.9194 9.8425
v -7.7332 -13.9194 11.5736
v -5.3267 -13.9194 12.8599
v -2.7155 -13.9194 13.652
v 0 -13.9194 13.9194
v 2.7156 -13.9194 13.652
v 5.3267 -13.9194 12.8599
v 7.7332 -13.9194 11.5736
v 9.8425 -13.9194 9.8425
v 11.5736 -13.9194 7.7332
v 12.8599 -13.9194 5.3267
v 13.652 -13.9194 2.7155
v 13.9194 -13.9194 -0
v 13.652 -13.9194 -2.7156
v 12.8599 -13.9194 -5.3268
v 11.5736 -13.9194 -7.7332
v 9.8425 -13.9194 -9.8425
v 7.7332 -13.9194 -11.5736
v 5.3267 -13.9194 -12.8599
v 2.7155 -13.9194 -13.652
v -0 -16.3675 -10.9364
v -2.1336 -16.3675 -10.7263
v -4.1852 -16.3675 -10.1039
v -6.0759 -16.3675 -9.0933
v -7.7332 -16.3675 -7.7332
v -9.0933 -16.3675 -6.0759
v -10.1039 -16.3675 -4.1852
v -10.7263 -16.3675 -2.1336
v -10.9364 -16.3675 0
v -10.7263 -16.3675 2.1336
v -10.1039 -16.3675 4.1852
v -9.0933 -16.3675 6.076
v -7.7332 -16.3675 7.7332
v -6.0759 -16.3675 9.0933
v -4.1852 -16.3675 10.1039
v -2.1336 -16.3675 10.7263
v 0 -16.3675 10.9364
v 2.1336 -16.3675 10.7263
v 4.1852 -16.3675 10.1039
v 6.076 -16.3675 9.0933
v 7.7332 -16.3675 7.7332
v 9.0933 -16.3675 6.0759
v 10.1039 -16.3675 4.1852
v 10.7263 -16.3675 2.1336
v 10.9364 -16.3675 -0
v 10.7263 -16.3675 -2.1336
v 10.1039 -16.3675 -4.1852
v 9.0933 -16.3675 -6.076
v 7.7332 -16.3675 -7.7332
v 6.0759 -16.3675 -9.0933
v 4.1852 -16.3675 -10.1039
v 2.1336 -16.3675 -10.7263
v -0 -18.1866 -7.5331
v -1.4696 -18.1866 -7.3884
v -2.8828 -18.1866 -6.9597
v -4.1852 -18.1866 -6.2636
v -5.3267 -18.1866 -5.3267
v -6.2636 -18.1866 -4.1852
v -6.9597 -18.1866 -2.8828
v -7.3884 -18.1866 -1.4696
v -7.5331 -18.1866 0
v -7.3884 -18.1866 1.4696
v -6.9597 -18.1866 2.8828
v -6.2636 -18.1866 4.1852
v -5.3267 -18.1866 5.3267
v -4.1852 -18.1866 6.2636
v -2.8828 -18.1866 6.9597
v -1.4696 -18.1866 7.3884
v 0 -18.1866 7.5331
v 1.4696 -18.1866 7.3884
v 2.8828 -18.1866 6.9597
v 4.1852 -18.1866 6.2636
v 5.3267 -18.1866 5.3267
v 6.2636 -18.1866 4.1852
v 6.9597 -18.1866 2.8828
v 7.3884 -18.1866 1.4696
v 7.5331 -18.1866 -0
v 7.3884 -18.1866 -1.4697
v 6.9597 -18.1866 -2.8828
v 6.2636 -18.1866 -4.1852
v 5.3267 -18.1866 -5.3267
v 4.1852 -18.1866 -6.2636
v 2.8828 -18.1866 -6.9597
v 1.4696 -18.1866 -7.3884
v -0 -19.3068 -3.8404
v -0.7492 -19.3068 -3.7666
v -1.4696 -19.3068 -3.548
v -2.1336 -19.3068 -3.1931
v -2.7155 -19.3068 -2.7155
v -3.1931 -19.3068 -2.1336
v -3.548 -19.3068 -1.4696
v -3.7666 -19.3068 -0.7492
v -3.8404 -19.3068 0
v -3.7666 -19.3068 0.7492
v -3.548 -19.3068 1.4696
v -3.1931 -19.3068 2.1336
v -2.7155 -19.3068 2.7155
v -2.1336 -19.3068 3.1931
v -1.4696 -19.3068 3.548
v -0.7492 -19.3068 3.7666
v 0 -19.3068 3.8404
v 0.7492 -19.3068 3.7666
v 1.4696 -19.3068 3.548
v 2.1336 -19.3068 3.1931
v 2.7155 -19.3068 2.7155
v 3.1931 -19.3068 2.1336
v 3.548 -19.3068 1.4696
v 3.7666 -19.3068 0.7492
v 3.8404 -19.3068 -0
v 3.7666 -19.3068 -0.7492
v 3.548 -19.3068 -1.4696
v 3.1931 -19.3068 -2.1336
v 2.7155 -19.3068 -2.7155
v 2.1336 -19.3068 -3.1931
v 1.4696 -19.3068 -3.548
v 0.7492 -19.3068 -3.7666
v 0 -19.685 -0
#end vertices

#begin 497 textures vertices 
vt 0.4961232 0.0335572 0
vt 0.495948 0.07660432 0
vt 0.4845284 0.0762124 0
vt 0.4732232 0.07525467 0
vt 0.4621378 0.07375447 0
vt 0.4513715 0.0717363 0
vt 0.4410094 0.06922286 0
vt 0.4311334 0.06622521 0
vt 0.4218275 0.06274469 0
vt 0.4131846 0.05876654 0
vt 0.4053114 0.05426643 0
vt 0.3983378 0.04921329 0
vt 0.3924169 0.0435776 0
vt 0.3877392 0.03734075 0
vt 0.3845194 0.0305069 0
vt 0.3830063 0.02311866 0
vt 0.3834625 0.01527971 0
vt 0.3861578 0.007171266 0
vt 0.6071922 0.01593718 0
vt 0.6076195 0.02371341 0
vt 0.6061905 0.03107683 0
vt 0.6031237 0.037925 0
vt 0.5986321 0.04420691 0
vt 0.5929034 0.049905 0
vt 0.5861088 0.05502283 0
vt 0.5783892 0.05957537 0
vt 0.5698685 0.06358123 0
vt 0.5606519 0.06705513 0
vt 0.5508349 0.07000584 0
vt 0.5405061 0.07243053 0
vt 0.5297555 0.07431735 0
vt 0.5186742 0.0756518 0
vt 0.5073684 0.07641784 0
vt 0.4965887 0.1125556 0
vt 0.4794225 0.1121322 0
vt 0.4623246 0.111053 0
vt 0.4453854 0.1093186 0
vt 0.4286934 0.1069201 0
vt 0.4123359 0.1038422 0
vt 0.3964064 0.1000507 0
vt 0.3810039 0.0954969 0
vt 0.3662462 0.09010855 0
vt 0.352272 0.0837904 0
vt 0.3392592 0.07641987 0
vt 0.3274373 0.06785382 0
vt 0.3171096 0.05792912 0
vt 0.3086691 0.04648166 0
vt 0.302641 0.03336546 0
vt 0.2997001 0.01850217 0
vt 0.3007114 0.001953866 0
vt 0.688031 0.018187 0
vt 0.6857351 0.03297261 0
vt 0.680381 0.04617416 0
vt 0.6725928 0.05780065 0
vt 0.662869 0.06794354 0
vt 0.6515905 0.07672659 0
vt 0.6390565 0.084285 0
vt 0.6254974 0.09074447 0
vt 0.6110935 0.09621903 0
vt 0.5959898 0.1007998 0
vt 0.5803057 0.1045627 0
vt 0.5641445 0.1075615 0
vt 0.5476024 0.1098384 0
vt 0.530769 0.1114183 0
vt 0.513734 0.1123205 0
vt 0.4972555 0.1474102 0
vt 0.4761099 0.1469932 0
vt 0.4549983 0.1459401 0
vt 0.4339832 0.1442451 0
vt 0.4131279 0.141887 0
vt 0.3924957 0.1388327 0
vt 0.3721544 0.1350267 0
vt 0.352179 0.1303925 0
vt 0.3326582 0.1248204 0
vt 0.3136993 0.1181663 0
vt 0.2954436 0.1102377 0
vt 0.2780783 0.1007899 0
vt 0.2618665 0.08951109 0
vt 0.2471747 0.0760173 0
vt 0.234535 0.0598474 0
vt 0.2247177 0.04046915 0
vt 0.2188564 0.01732087 0
vt 0.7605896 0.03697514 0
vt 0.7524048 0.05680748 0
vt 0.7411492 0.0736108 0
vt 0.7276208 0.0877812 0
vt 0.7123845 0.09970181 0
vt 0.695841 0.1097098 0
vt 0.6782759 0.1180941 0
vt 0.6598981 0.1250911 0
vt 0.6408649 0.1308951 0
vt 0.6212953 0.1356583 0
vt 0.6012871 0.1395019 0
vt 0.5809211 0.1425163 0
vt 0.5602687 0.1447715 0
vt 0.5393983 0.1463173 0
vt 0.5183725 0.1471896 0
vt 0.4978849 0.1820338 0
vt 0.4738397 0.1816466 0
vt 0.4498028 0.1807037 0
vt 0.4258115 0.1791982 0
vt 0.4019021 0.1771095 0
vt 0.3781105 0.1744016 0
vt 0.3544735 0.1710172 0
vt 0.3310295 0.1668741 0
vt 0.307822 0.161857 0
vt 0.2849003 0.1558091 0
vt 0.2623327 0.1485161 0
vt 0.2402058 0.1396915 0
vt 0.2186481 0.1289502 0
vt 0.1978504 0.1157763 0
vt 0.1781121 0.09947409 0
vt 0.1599148 0.07910845 0
vt 0.144063 0.05342461 0
vt 0.8246426 0.07099546 0
vt 0.8088451 0.09290659 0
vt 0.7909621 0.1107367 0
vt 0.7716192 0.1253014 0
vt 0.7512191 0.137241 0
vt 0.730026 0.1470524 0
vt 0.7082193 0.155122 0
vt 0.6859244 0.1617487 0
vt 0.6632319 0.1671664 0
vt 0.6402114 0.1715532 0
vt 0.6169187 0.1750475 0
vt 0.5933996 0.1777556 0
vt 0.5696974 0.1797576 0
vt 0.5458517 0.181112 0
vt 0.5219013 0.1818613 0
vt 0.4984664 0.2166824 0
vt 0.4723258 0.2163418 0
vt 0.4461769 0.2155629 0
vt 0.4200371 0.2143425 0
vt 0.3939192 0.212666 0
vt 0.3678347 0.2105043 0
vt 0.3417918 0.2078112 0
vt 0.3157934 0.2045178 0
vt 0.2898399 0.2005267 0
vt 0.2639231 0.1957007 0
vt 0.2380311 0.1898501 0
vt 0.2121412 0.1827121 0
vt 0.1862217 0.1739204 0
vt 0.1602319 0.1629591 0
vt 0.1341255 0.1490919 0
vt 0.1078659 0.1312455 0
vt 0.0814771 0.1078272 0
vt 0.8780749 0.1181455 0
vt 0.8544299 0.1389173 0
vt 0.8302412 0.1553331 0
vt 0.8056945 0.1684432 0
vt 0.7808864 0.1789964 0
vt 0.7558704 0.1875379 0
vt 0.7306757 0.1944702 0
vt 0.705324 0.2000949 0
vt 0.6798286 0.2046402 0
vt 0.6542034 0.2082797 0
vt 0.6284603 0.2111463 0
vt 0.6026118 0.2133416 0
vt 0.5766722 0.2149423 0
vt 0.5506566 0.2160065 0
vt 0.5245825 0.2165767 0
vt 0.4990048 0.251426 0
vt 0.4714379 0.2511455 0
vt 0.4438549 0.2505665 0
vt 0.4162572 0.2496929 0
vt 0.3886413 0.2485195 0
vt 0.3610004 0.2470302 0
vt 0.333321 0.2451984 0
vt 0.3055794 0.2429808 0
vt 0.2777418 0.2403126 0
vt 0.2497548 0.2371025 0
vt 0.2215408 0.2332177 0
vt 0.1929871 0.2284721 0
vt 0.1639251 0.2225968 0
vt 0.1341069 0.2152 0
vt 0.1031597 0.2057027 0
vt 0.07051915 0.1932206 0
vt 0.03533122 0.1763605 0
vt 0.9188241 0.1757802 0
vt 0.8883749 0.1924961 0
vt 0.8589851 0.2054564 0
vt 0.8303111 0.2156527 0
vt 0.8021128 0.2237591 0
vt 0.7742271 0.2302477 0
vt 0.74654 0.2354586 0
vt 0.7189742 0.2396408 0
vt 0.6914751 0.2429823 0
vt 0.6640081 0.2456251 0
vt 0.6365469 0.2476783 0
vt 0.6090775 0.2492247 0
vt 0.5815913 0.2503292 0
vt 0.5540837 0.251041 0
vt 0.526554 0.2513977 0
vt 0.4995115 0.2862585 0
vt 0.4711143 0.2860475 0
vt 0.4427015 0.2856929 0
vt 0.4142632 0.2852045 0
vt 0.3857879 0.2845886 0
vt 0.3572568 0.2838466 0
vt 0.328643 0.2829747 0
vt 0.2999089 0.2819618 0
vt 0.2709979 0.2807875 0
vt 0.2418308 0.2794182 0
vt 0.2122925 0.2778022 0
vt 0.1822126 0.2758601 0
vt 0.1513408 0.2734736 0
vt 0.1192973 0.2704618 0
vt 0.08549694 0.2665475 0
vt 0.04902206 0.2612926 0
vt 0.008391136 0.2539829 0
vt 0.9452451 0.2409341 0
vt 0.9100118 0.2513435 0
vt 0.8770801 0.2593442 0
vt 0.8456648 0.2655902 0
vt 0.8152635 0.2705154 0
vt 0.7855439 0.2744201 0
vt 0.7562868 0.2775186 0
vt 0.7273446 0.2799696 0
vt 0.6986133 0.2818926 0
vt 0.6700232 0.2833793 0
vt 0.6415246 0.2845015 0
vt 0.6130828 0.2853154 0
vt 0.5846749 0.2858656 0
vt 0.5562844 0.2861882 0
vt 0.5278987 0.2863113 0
vt 0.5000014 0.3211433 0
vt 0.4713345 0.3210093 0
vt 0.4426583 0.3208918 0
vt 0.4139599 0.3208078 0
vt 0.3852246 0.3207752 0
vt 0.3564311 0.3208131 0
vt 0.3275493 0.3209427 0
vt 0.2985375 0.3211875 0
vt 0.2693341 0.3215741 0
vt 0.239854 0.3221332 0
vt 0.2099739 0.3229006 0
vt 0.1795113 0.3239191 0
vt 0.1481976 0.3252411 0
vt 0.1156252 0.3269334 0
vt 0.08116332 0.3290859 0
vt 0.04381363 0.3318276 0
vt 0.00195312 0.3353569 0
vt 0.9561856 0.3104441 0
vt 0.9188363 0.3131875 0
vt 0.8843756 0.3153416 0
vt 0.8518034 0.3170355 0
vt 0.82049 0.3183589 0
vt 0.7900275 0.3193787 0
vt 0.7601469 0.3201473 0
vt 0.7306677 0.3207075 0
vt 0.7014645 0.3210951 0
vt 0.6724522 0.3213407 0
vt 0.6435706 0.3214711 0
vt 0.6147772 0.3215099 0
vt 0.5860426 0.321478 0
vt 0.5573444 0.3213944 0
vt 0.5286676 0.3212772 0
vt 0.5004913 0.3560282 0
vt 0.4721033 0.3559751 0
vt 0.4437181 0.3560979 0
vt 0.4153267 0.3564199 0
vt 0.3869186 0.3569694 0
vt 0.3584772 0.3577826 0
vt 0.3299781 0.3589039 0
vt 0.3013881 0.3603899 0
vt 0.2726565 0.3623118 0
vt 0.2437133 0.3647618 0
vt 0.2144566 0.3678591 0
vt 0.1847367 0.3717625 0
vt 0.1543343 0.3766863 0
vt 0.1229192 0.3829308 0
vt 0.08998652 0.3909297 0
vt 0.05475304 0.4013375 0
vt 0.01597099 0.415189 0
vt 0.9509802 0.3809796 0
vt 0.9145048 0.3757266 0
vt 0.8807048 0.3718137 0
vt 0.8486607 0.3688035 0
vt 0.8177896 0.3664182 0
vt 0.7877098 0.3644774 0
vt 0.7581708 0.3628626 0
vt 0.7290045 0.3614943 0
vt 0.7000936 0.360321 0
vt 0.6713594 0.359309 0
vt 0.6427459 0.3584377 0
vt 0.6142143 0.3576968 0
vt 0.585739 0.3570815 0
vt 0.5573013 0.3565934 0
vt 0.5288878 0.3562391 0
vt 0.5009978 0.3908606 0
vt 0.4734483 0.3908886 0
vt 0.4459184 0.3912449 0
vt 0.4184106 0.3919562 0
vt 0.3909235 0.39306 0
vt 0.3634537 0.3946061 0
vt 0.3359929 0.3966582 0
vt 0.3085247 0.3993 0
vt 0.2810262 0.4026408 0
vt 0.2534601 0.4068219 0
vt 0.2257725 0.4120317 0
vt 0.1978863 0.418519 0
vt 0.1696874 0.4266241 0
vt 0.1410121 0.4368196 0
vt 0.1116221 0.4497778 0
vt 0.08117196 0.4664922 0
vt 0.04917565 0.4884811 0
vt 0.929485 0.4490527 0
vt 0.8968439 0.4365721 0
vt 0.8658958 0.4270757 0
vt 0.836078 0.4196808 0
vt 0.8070159 0.4138067 0
vt 0.778462 0.4090624 0
vt 0.750248 0.4051787 0
vt 0.7222611 0.4019695 0
vt 0.6944226 0.3993025 0
vt 0.6666821 0.3970855 0
vt 0.6390023 0.395254 0
vt 0.6113612 0.393766 0
vt 0.5837458 0.3925929 0
vt 0.5561479 0.3917198 0
vt 0.5285648 0.3911411 0
vt 0.5015357 0.4256041 0
vt 0.4754194 0.4257094 0
vt 0.4493442 0.4262791 0
vt 0.4233291 0.427343 0
vt 0.3973892 0.4289433 0
vt 0.3715404 0.4311379 0
vt 0.345797 0.4340038 0
vt 0.3201708 0.4376426 0
vt 0.2946756 0.4421868 0
vt 0.2693227 0.4478106 0
vt 0.2441283 0.4547418 0
vt 0.2191116 0.4632822 0
vt 0.1943028 0.4738342 0
vt 0.1697553 0.4869431 0
vt 0.1455655 0.5033576 0
vt 0.1219188 0.5241291 0
vt 0.09918592 0.550755 0
vt 0.8921389 0.5110287 0
vt 0.8658792 0.4931843 0
vt 0.8397723 0.4793183 0
vt 0.8137821 0.4683582 0
vt 0.7878623 0.4595676 0
vt 0.7619723 0.4524306 0
vt 0.7360792 0.446581 0
vt 0.7101632 0.4417559 0
vt 0.6842089 0.4377654 0
vt 0.6582111 0.4344729 0
vt 0.6321681 0.4317803 0
vt 0.6060836 0.4296192 0
vt 0.5799655 0.4279433 0
vt 0.5538248 0.4267235 0
vt 0.5276764 0.4259447 0
vt 0.5021164 0.4602525 0
vt 0.4780997 0.4604247 0
vt 0.4541491 0.4611738 0
vt 0.4303033 0.4625278 0
vt 0.4066008 0.4645293 0
vt 0.3830814 0.4672368 0
vt 0.3597877 0.4707308 0
vt 0.3367667 0.4751168 0
vt 0.3140745 0.4805334 0
vt 0.2917782 0.4871594 0
vt 0.2699718 0.4952279 0
vt 0.248778 0.5050384 0
vt 0.2283771 0.516977 0
vt 0.2090333 0.5315407 0
vt 0.1911491 0.5493699 0
vt 0.17535 0.5712812 0
vt 0.1626319 0.5982989 0
vt 0.8400909 0.5631677 0
vt 0.8218934 0.5428038 0
vt 0.8021544 0.5265025 0
vt 0.7813562 0.5133295 0
vt 0.7597981 0.5025891 0
vt 0.7376708 0.4937654 0
vt 0.7151021 0.4864731 0
vt 0.6921811 0.4804261 0
vt 0.6689727 0.4754094 0
vt 0.6455285 0.4712668 0
vt 0.621892 0.4678832 0
vt 0.5981003 0.4651757 0
vt 0.5741907 0.4630875 0
vt 0.5501992 0.4615824 0
vt 0.5261619 0.4606396 0
vt 0.5027457 0.4948759 0
vt 0.4816283 0.4950964 0
vt 0.4606022 0.4959684 0
vt 0.4397315 0.4975139 0
vt 0.4190788 0.4997687 0
vt 0.3987119 0.502783 0
vt 0.3787039 0.5066255 0
vt 0.3591339 0.5113881 0
vt 0.3401002 0.5171915 0
vt 0.3217218 0.5241878 0
vt 0.3041561 0.5325714 0
vt 0.2876107 0.5425787 0
vt 0.2723747 0.5544986 0
vt 0.2588456 0.5686693 0
vt 0.2475887 0.5854711 0
vt 0.2394027 0.605303 0
vt 0.2354252 0.6285154 0
vt 0.7752886 0.6018103 0
vt 0.7654704 0.5824325 0
vt 0.7528303 0.5662621 0
vt 0.7381379 0.5527699 0
vt 0.7219245 0.5414918 0
vt 0.70456 0.5320447 0
vt 0.6863039 0.5241166 0
vt 0.6673448 0.5174631 0
vt 0.6478237 0.5118917 0
vt 0.6278481 0.5072579 0
vt 0.6075066 0.5034522 0
vt 0.5868742 0.5003983 0
vt 0.5660179 0.4980409 0
vt 0.5450034 0.4963457 0
vt 0.5238916 0.4952928 0
vt 0.5034121 0.5297302 0
vt 0.4862665 0.5299653 0
vt 0.4692312 0.5308673 0
vt 0.4523974 0.5324469 0
vt 0.435855 0.5347235 0
vt 0.4196934 0.5377219 0
vt 0.4040089 0.5414844 0
vt 0.3889039 0.5460653 0
vt 0.3745004 0.5515389 0
vt 0.3609407 0.5579979 0
vt 0.3484062 0.5655559 0
vt 0.337127 0.5743384 0
vt 0.3274025 0.5844809 0
vt 0.3196135 0.5961071 0
vt 0.3142585 0.6093084 0
vt 0.3119619 0.624095 0
vt 0.3135009 0.640328 0
vt 0.7003054 0.6237796 0
vt 0.6973638 0.6089165 0
vt 0.6913352 0.5958006 0
vt 0.6828943 0.5843534 0
vt 0.6725662 0.5744291 0
vt 0.660744 0.5658635 0
vt 0.6477309 0.5584933 0
vt 0.6337564 0.5521756 0
vt 0.6189976 0.5467871 0
vt 0.6035957 0.5422342 0
vt 0.587666 0.538443 0
vt 0.5713083 0.5353652 0
vt 0.5546161 0.5329669 0
vt 0.5376767 0.5312327 0
vt 0.5205785 0.5301536 0
vt 0.5040521 0.5656812 0
vt 0.4926315 0.5658676 0
vt 0.4813254 0.5666336 0
vt 0.4702438 0.5679679 0
vt 0.4594925 0.5698554 0
vt 0.4491638 0.5722791 0
vt 0.4393465 0.5752296 0
vt 0.4301296 0.5787033 0
vt 0.4216084 0.582709 0
vt 0.4138885 0.5872613 0
vt 0.4070935 0.592379 0
vt 0.4013643 0.5980769 0
vt 0.3968723 0.6043587 0
vt 0.393805 0.6112068 0
vt 0.3923754 0.6185703 0
vt 0.3928023 0.6263466 0
vt 0.3953056 0.6343716 0
vt 0.6165409 0.6270042 0
vt 0.6169969 0.6191653 0
vt 0.6154835 0.6117771 0
vt 0.6122634 0.6049433 0
vt 0.6075855 0.5987066 0
vt 0.6016643 0.5930711 0
vt 0.5946905 0.5880182 0
vt 0.5868172 0.5835182 0
vt 0.5781741 0.5795403 0
vt 0.568868 0.5760599 0
vt 0.5589918 0.5730624 0
vt 0.5486295 0.5705491 0
vt 0.537863 0.568531 0
vt 0.5267774 0.5670309 0
vt 0.515472 0.5660732 0
vt 0.503876 0.6087282 0
vt 0.6046883 0.007912367 0
vt 0.7645656 0.01376247 0
vt 0.9008069 0.09151753 0
vt 0.9840264 0.2270808 0
vt 0.6864906 0.00195312 0
vt 0.8373595 0.04397612 0
vt 0.9508192 0.1537896 0
vt 0.9980469 0.3069128 0
vt 0.6992946 0.640328 0
vt 0.8559443 0.5888518 0
vt 0.9646736 0.4659112 0
vt 0.6138459 0.6351127 0
vt 0.7811508 0.6249583 0
vt 0.9185293 0.5344467 0
vt 0.9916115 0.3882874 0
#end 497 textures vertices 

#begin 482 normals 
vn -0 1 0
vn -0 0.9796 -0.201
vn -0.0392 0.9796 -0.1971
vn -0.0769 0.9796 -0.1857
vn -0.1117 0.9796 -0.1671
vn -0.1421 0.9796 -0.1421
vn -0.1671 0.9796 -0.1117
vn -0.1857 0.9796 -0.0769
vn -0.1971 0.9796 -0.0392
vn -0.201 0.9796 0
vn -0.1971 0.9796 0.0392
vn -0.1857 0.9796 0.0769
vn -0.1671 0.9796 0.1117
vn -0.1421 0.9796 0.1421
vn -0.1117 0.9796 0.1671
vn -0.0769 0.9796 0.1857
vn -0.0392 0.9796 0.1971
vn 0 0.9796 0.201
vn 0.0392 0.9796 0.1971
vn 0.0769 0.9796 0.1857
vn 0.1117 0.9796 0.1671
vn 0.1421 0.9796 0.1421
vn 0.1671 0.9796 0.1117
vn 0.1857 0.9796 0.0769
vn 0.1971 0.9796 0.0392
vn 0.201 0.9796 -0
vn 0.1971 0.9796 -0.0392
vn 0.1857 0.9796 -0.0769
vn 0.1671 0.9796 -0.1117
vn 0.1421 0.9796 -0.1421
vn 0.1117 0.9796 -0.1671
vn 0.0769 0.9796 -0.1857
vn 0.0392 0.9796 -0.1971
vn -0 0.9217 -0.3879
vn -0.0757 0.9217 -0.3804
vn -0.1484 0.9217 -0.3584
vn -0.2155 0.9217 -0.3225
vn -0.2743 0.9217 -0.2743
vn -0.3225 0.9217 -0.2155
vn -0.3584 0.9217 -0.1484
vn -0.3804 0.9217 -0.0757
vn -0.3879 0.9217 0
vn -0.3804 0.9217 0.0757
vn -0.3584 0.9217 0.1484
vn -0.3225 0.9217 0.2155
vn -0.2743 0.9217 0.2743
vn -0.2155 0.9217 0.3225
vn -0.1484 0.9217 0.3584
vn -0.0757 0.9217 0.3804
vn 0 0.9217 0.3879
vn 0.0757 0.9217 0.3804
vn 0.1484 0.9217 0.3584
vn 0.2155 0.9217 0.3225
vn 0.2743 0.9217 0.2743
vn 0.3225 0.9217 0.2155
vn 0.3584 0.9217 0.1484
vn 0.3804 0.9217 0.0757
vn 0.3879 0.9217 -0
vn 0.3804 0.9217 -0.0757
vn 0.3584 0.9217 -0.1484
vn 0.3225 0.9217 -0.2155
vn 0.2743 0.9217 -0.2743
vn 0.2155 0.9217 -0.3225
vn 0.1484 0.9217 -0.3584
vn 0.0757 0.9217 -0.3804
vn -0 0.8286 -0.5598
vn -0.1092 0.8286 -0.549
vn -0.2142 0.8286 -0.5172
vn -0.311 0.8286 -0.4654
vn -0.3958 0.8286 -0.3958
vn -0.4654 0.8286 -0.311
vn -0.5172 0.8286 -0.2142
vn -0.549 0.8286 -0.1092
vn -0.5598 0.8286 0
vn -0.549 0.8286 0.1092
vn -0.5172 0.8286 0.2142
vn -0.4654 0.8286 0.311
vn -0.3958 0.8286 0.3958
vn -0.311 0.8286 0.4654
vn -0.2142 0.8286 0.5172
vn -0.1092 0.8286 0.549
vn 0 0.8286 0.5598
vn 0.1092 0.8286 0.549
vn 0.2142 0.8286 0.5172
vn 0.311 0.8286 0.4654
vn 0.3958 0.8286 0.3958
vn 0.4654 0.8286 0.311
vn 0.5172 0.8286 0.2142
vn 0.549 0.8286 0.1092
vn 0.5598 0.8286 -0
vn 0.549 0.8286 -0.1092
vn 0.5172 0.8286 -0.2142
vn 0.4654 0.8286 -0.311
vn 0.3958 0.8286 -0.3958
vn 0.311 0.8286 -0.4654
vn 0.2142 0.8286 -0.5172
vn 0.1092 0.8286 -0.549
vn -0 0.7041 -0.7101
vn -0.1385 0.7041 -0.6965
vn -0.2718 0.7041 -0.6561
vn -0.3945 0.7041 -0.5905
vn -0.5021 0.7041 -0.5021
vn -0.5905 0.7041 -0.3945
vn -0.6561 0.7041 -0.2718
vn -0.6965 0.7041 -0.1385
vn -0.7101 0.7041 0
vn -0.6965 0.7041 0.1385
vn -0.6561 0.7041 0.2718
vn -0.5905 0.7041 0.3945
vn -0.5021 0.7041 0.5021
vn -0.3945 0.7041 0.5905
vn -0.2718 0.7041 0.6561
vn -0.1385 0.7041 0.6965
vn 0 0.7041 0.7101
vn 0.1385 0.7041 0.6965
vn 0.2718 0.7041 0.6561
vn 0.3945 0.7041 0.5905
vn 0.5021 0.7041 0.5021
vn 0.5905 0.7041 0.3945
vn 0.6561 0.7041 0.2718
vn 0.6965 0.7041 0.1385
vn 0.7101 0.7041 -0
vn 0.6965 0.7041 -0.1385
vn 0.6561 0.7041 -0.2718
vn 0.5905 0.7041 -0.3945
vn 0.5021 0.7041 -0.5021
vn 0.3945 0.7041 -0.5905
vn 0.2718 0.7041 -0.6561
vn 0.1385 0.7041 -0.6965
vn -0 0.5528 -0.8333
vn -0.1626 0.5528 -0.8173
vn -0.3189 0.5528 -0.7699
vn -0.463 0.5528 -0.6929
vn -0.5893 0.5528 -0.5893
vn -0.6929 0.5528 -0.463
vn -0.7699 0.5528 -0.3189
vn -0.8173 0.5528 -0.1626
vn -0.8333 0.5528 0
vn -0.8173 0.5528 0.1626
vn -0.7699 0.5528 0.3189
vn -0.6929 0.5528 0.463
vn -0.5893 0.5528 0.5893
vn -0.463 0.5528 0.6929
vn -0.3189 0.5528 0.7699
vn -0.1626 0.5528 0.8173
vn 0 0.5528 0.8333
vn 0.1626 0.5528 0.8173
vn 0.3189 0.5528 0.7699
vn 0.463 0.5528 0.6929
vn 0.5893 0.5528 0.5893
vn 0.6929 0.5528 0.463
vn 0.7699 0.5528 0.3189
vn 0.8173 0.5528 0.1626
vn 0.8333 0.5528 -0
vn 0.8173 0.5528 -0.1626
vn 0.7699 0.5528 -0.3189
vn 0.6929 0.5528 -0.463
vn 0.5893 0.5528 -0.5893
vn 0.463 0.5528 -0.6929
vn 0.3189 0.5528 -0.7699
vn 0.1626 0.5528 -0.8173
vn -0 0.3805 -0.9248
vn -0.1804 0.3805 -0.907
vn -0.3539 0.3805 -0.8544
vn -0.5138 0.3805 -0.7689
vn -0.6539 0.3805 -0.6539
vn -0.7689 0.3805 -0.5138
vn -0.8544 0.3805 -0.3539
vn -0.907 0.3805 -0.1804
vn -0.9248 0.3805 0
vn -0.907 0.3805 0.1804
vn -0.8544 0.3805 0.3539
vn -0.7689 0.3805 0.5138
vn -0.6539 0.3805 0.6539
vn -0.5138 0.3805 0.7689
vn -0.3539 0.3805 0.8544
vn -0.1804 0.3805 0.907
vn 0 0.3805 0.9248
vn 0.1804 0.3805 0.907
vn 0.3539 0.3805 0.8544
vn 0.5138 0.3805 0.7689
vn 0.6539 0.3805 0.6539
vn 0.7689 0.3805 0.5138
vn 0.8544 0.3805 0.3539
vn 0.907 0.3805 0.1804
vn 0.9248 0.3805 -0
vn 0.907 0.3805 -0.1804
vn 0.8544 0.3805 -0.3539
vn 0.7689 0.3805 -0.5138
vn 0.6539 0.3805 -0.6539
vn 0.5138 0.3805 -0.7689
vn 0.3539 0.3805 -0.8544
vn 0.1804 0.3805 -0.907
vn -0 0.1939 -0.981
vn -0.1914 0.1939 -0.9622
vn -0.3754 0.1939 -0.9063
vn -0.545 0.1939 -0.8157
vn -0.6937 0.1939 -0.6937
vn -0.8157 0.1939 -0.545
vn -0.9063 0.1939 -0.3754
vn -0.9622 0.1939 -0.1914
vn -0.981 0.1939 0
vn -0.9622 0.1939 0.1914
vn -0.9063 0.1939 0.3754
vn -0.8157 0.1939 0.545
vn -0.6937 0.1939 0.6937
vn -0.545 0.1939 0.8157
vn -0.3754 0.1939 0.9063
vn -0.1914 0.1939 0.9622
vn 0 0.1939 0.981
vn 0.1914 0.1939 0.9622
vn 0.3754 0.1939 0.9063
vn 0.545 0.1939 0.8157
vn 0.6937 0.1939 0.6937
vn 0.8157 0.1939 0.545
vn 0.9063 0.1939 0.3754
vn 0.9622 0.1939 0.1914
vn 0.981 0.1939 -0
vn 0.9622 0.1939 -0.1914
vn 0.9063 0.1939 -0.3754
vn 0.8157 0.1939 -0.545
vn 0.6937 0.1939 -0.6937
vn 0.545 0.1939 -0.8157
vn 0.3754 0.1939 -0.9063
vn 0.1914 0.1939 -0.9622
vn -0 0 -1
vn -0.1951 0 -0.9808
vn -0.3827 -0 -0.9239
vn -0.5556 0 -0.8315
vn -0.7071 0 -0.7071
vn -0.8315 0 -0.5556
vn -0.9239 -0 -0.3827
vn -0.9808 0 -0.1951
vn -1 -0 0
vn -0.9808 -0 0.1951
vn -0.9239 0 0.3827
vn -0.8315 0 0.5556
vn -0.7071 0 0.7071
vn -0.5556 0 0.8315
vn -0.3827 0 0.9239
vn -0.1951 -0 0.9808
vn 0 0 1
vn 0.1951 0 0.9808
vn 0.3827 0 0.9239
vn 0.5556 0 0.8315
vn 0.7071 -0 0.7071
vn 0.8315 0 0.5556
vn 0.9239 -0 0.3827
vn 0.9808 0 0.1951
vn 1 0 -0
vn 0.9808 -0 -0.1951
vn 0.9239 0 -0.3827
vn 0.8315 0 -0.5556
vn 0.7071 0 -0.7071
vn 0.5556 0 -0.8315
vn 0.3827 -0 -0.9239
vn 0.1951 0 -0.9808
vn -0 -0.1939 -0.981
vn -0.1914 -0.1939 -0.9622
vn -0.3754 -0.1939 -0.9063
vn -0.545 -0.1939 -0.8157
vn -0.6937 -0.1939 -0.6937
vn -0.8157 -0.1939 -0.545
vn -0.9063 -0.1939 -0.3754
vn -0.9622 -0.1939 -0.1914
vn -0.981 -0.1939 0
vn -0.9622 -0.1939 0.1914
vn -0.9063 -0.1939 0.3754
vn -0.8157 -0.1939 0.545
vn -0.6937 -0.1939 0.6937
vn -0.545 -0.1939 0.8157
vn -0.3754 -0.1939 0.9063
vn -0.1914 -0.1939 0.9622
vn 0 -0.1939 0.981
vn 0.1914 -0.1939 0.9622
vn 0.3754 -0.1939 0.9063
vn 0.545 -0.1939 0.8157
vn 0.6937 -0.1939 0.6937
vn 0.8157 -0.1939 0.545
vn 0.9063 -0.1939 0.3754
vn 0.9622 -0.1939 0.1914
vn 0.981 -0.1939 -0
vn 0.9622 -0.1939 -0.1914
vn 0.9063 -0.1939 -0.3754
vn 0.8157 -0.1939 -0.545
vn 0.6937 -0.1939 -0.6937
vn 0.545 -0.1939 -0.8157
vn 0.3754 -0.1939 -0.9063
vn 0.1914 -0.1939 -0.9622
vn -0 -0.3805 -0.9248
vn -0.1804 -0.3805 -0.907
vn -0.3539 -0.3805 -0.8544
vn -0.5138 -0.3805 -0.7689
vn -0.6539 -0.3805 -0.6539
vn -0.7689 -0.3805 -0.5138
vn -0.8544 -0.3805 -0.3539
vn -0.907 -0.3805 -0.1804
vn -0.9248 -0.3805 0
vn -0.907 -0.3805 0.1804
vn -0.8544 -0.3805 0.3539
vn -0.7689 -0.3805 0.5138
vn -0.6539 -0.3805 0.6539
vn -0.5138 -0.3805 0.7689
vn -0.3539 -0.3805 0.8544
vn -0.1804 -0.3805 0.907
vn 0 -0.3805 0.9248
vn 0.1804 -0.3805 0.907
vn 0.3539 -0.3805 0.8544
vn 0.5138 -0.3805 0.7689
vn 0.6539 -0.3805 0.6539
vn 0.7689 -0.3805 0.5138
vn 0.8544 -0.3805 0.3539
vn 0.907 -0.3805 0.1804
vn 0.9248 -0.3805 -0
vn 0.907 -0.3805 -0.1804
vn 0.8544 -0.3805 -0.3539
vn 0.7689 -0.3805 -0.5138
vn 0.6539 -0.3805 -0.6539
vn 0.5138 -0.3805 -0.7689
vn 0.3539 -0.3805 -0.8544
vn 0.1804 -0.3805 -0.907
vn -0 -0.5528 -0.8333
vn -0.1626 -0.5528 -0.8173
vn -0.3189 -0.5528 -0.7699
vn -0.463 -0.5528 -0.6929
vn -0.5893 -0.5528 -0.5893
vn -0.6929 -0.5528 -0.463
vn -0.7699 -0.5528 -0.3189
vn -0.8173 -0.5528 -0.1626
vn -0.8333 -0.5528 0
vn -0.8173 -0.5528 0.1626
vn -0.7699 -0.5528 0.3189
vn -0.6929 -0.5528 0.463
vn -0.5893 -0.5528 0.5893
vn -0.463 -0.5528 0.6929
vn -0.3189 -0.5528 0.7699
vn -0.1626 -0.5528 0.8173
vn 0 -0.5528 0.8333
vn 0.1626 -0.5528 0.8173
vn 0.3189 -0.5528 0.7699
vn 0.463 -0.5528 0.6929
vn 0.5893 -0.5528 0.5893
vn 0.6929 -0.5528 0.463
vn 0.7699 -0.5528 0.3189
vn 0.8173 -0.5528 0.1626
vn 0.8333 -0.5528 -0
vn 0.8173 -0.5528 -0.1626
vn 0.7699 -0.5528 -0.3189
vn 0.6929 -0.5528 -0.463
vn 0.5893 -0.5528 -0.5893
vn 0.463 -0.5528 -0.6929
vn 0.3189 -0.5528 -0.7699
vn 0.1626 -0.5528 -0.8173
vn -0 -0.7041 -0.7101
vn -0.1385 -0.7041 -0.6965
vn -0.2718 -0.7041 -0.6561
vn -0.3945 -0.7041 -0.5905
vn -0.5021 -0.7041 -0.5021
vn -0.5905 -0.7041 -0.3945
vn -0.6561 -0.7041 -0.2718
vn -0.6965 -0.7041 -0.1385
vn -0.7101 -0.7041 0
vn -0.6965 -0.7041 0.1385
vn -0.6561 -0.7041 0.2718
vn -0.5905 -0.7041 0.3945
vn -0.5021 -0.7041 0.5021
vn -0.3945 -0.7041 0.5905
vn -0.2718 -0.7041 0.6561
vn -0.1385 -0.7041 0.6965
vn 0 -0.7041 0.7101
vn 0.1385 -0.7041 0.6965
vn 0.2718 -0.7041 0.6561
vn 0.3945 -0.7041 0.5905
vn 0.5021 -0.7041 0.5021
vn 0.5905 -0.7041 0.3945
vn 0.6561 -0.7041 0.2718
vn 0.6965 -0.7041 0.1385
vn 0.7101 -0.7041 -0
vn 0.6965 -0.7041 -0.1385
vn 0.6561 -0.7041 -0.2718
vn 0.5905 -0.7041 -0.3945
vn 0.5021 -0.7041 -0.5021
vn 0.3945 -0.7041 -0.5905
vn 0.2718 -0.7041 -0.6561
vn 0.1385 -0.7041 -0.6965
vn -0 -0.8286 -0.5598
vn -0.1092 -0.8286 -0.549
vn -0.2142 -0.8286 -0.5172
vn -0.311 -0.8286 -0.4654
vn -0.3958 -0.8286 -0.3958
vn -0.4654 -0.8286 -0.311
vn -0.5172 -0.8286 -0.2142
vn -0.549 -0.8286 -0.1092
vn -0.5598 -0.8286 0
vn -0.549 -0.8286 0.1092
vn -0.5172 -0.8286 0.2142
vn -0.4654 -0.8286 0.311
vn -0.3958 -0.8286 0.3958
vn -0.311 -0.8286 0.4654
vn -0.2142 -0.8286 0.5172
vn -0.1092 -0.8286 0.549
vn 0 -0.8286 0.5598
vn 0.1092 -0.8286 0.549
vn 0.2142 -0.8286 0.5172
vn 0.311 -0.8286 0.4654
vn 0.3958 -0.8286 0.3958
vn 0.4654 -0.8286 0.311
vn 0.5172 -0.8286 0.2142
vn 0.549 -0.8286 0.1092
vn 0.5598 -0.8286 -0
vn 0.549 -0.8286 -0.1092
vn 0.5172 -0.8286 -0.2142
vn 0.4654 -0.8286 -0.311
vn 0.3958 -0.8286 -0.3958
vn 0.311 -0.8286 -0.4654
vn 0.2142 -0.8286 -0.5172
vn 0.1092 -0.8286 -0.549
vn -0 -0.9217 -0.3879
vn -0.0757 -0.9217 -0.3804
vn -0.1484 -0.9217 -0.3584
vn -0.2155 -0.9217 -0.3225
vn -0.2743 -0.9217 -0.2743
vn -0.3225 -0.9217 -0.2155
vn -0.3584 -0.9217 -0.1484
vn -0.3804 -0.9217 -0.0757
vn -0.3879 -0.9217 0
vn -0.3804 -0.9217 0.0757
vn -0.3584 -0.9217 0.1484
vn -0.3225 -0.9217 0.2155
vn -0.2743 -0.9217 0.2743
vn -0.2155 -0.9217 0.3225
vn -0.1484 -0.9217 0.3584
vn -0.0757 -0.9217 0.3804
vn 0 -0.9217 0.3879
vn 0.0757 -0.9217 0.3804
vn 0.1484 -0.9217 0.3584
vn 0.2155 -0.9217 0.3225
vn 0.2743 -0.9217 0.2743
vn 0.3225 -0.9217 0.2155
vn 0.3584 -0.9217 0.1484
vn 0.3804 -0.9217 0.0757
vn 0.3879 -0.9217 -0
vn 0.3804 -0.9217 -0.0757
vn 0.3584 -0.9217 -0.1484
vn 0.3225 -0.9217 -0.2155
vn 0.2743 -0.9217 -0.2743
vn 0.2155 -0.9217 -0.3225
vn 0.1484 -0.9217 -0.3584
vn 0.0757 -0.9217 -0.3804
vn -0 -0.9796 -0.201
vn -0.0392 -0.9796 -0.1971
vn -0.0769 -0.9796 -0.1857
vn -0.1117 -0.9796 -0.1671
vn -0.1421 -0.9796 -0.1421
vn -0.1671 -0.9796 -0.1117
vn -0.1857 -0.9796 -0.0769
vn -0.1971 -0.9796 -0.0392
vn -0.201 -0.9796 0
vn -0.1971 -0.9796 0.0392
vn -0.1857 -0.9796 0.0769
vn -0.1671 -0.9796 0.1117
vn -0.1421 -0.9796 0.1421
vn -0.1117 -0.9796 0.1671
vn -0.0769 -0.9796 0.1857
vn -0.0392 -0.9796 0.1971
vn 0 -0.9796 0.201
vn 0.0392 -0.9796 0.1971
vn 0.0769 -0.9796 0.1857
vn 0.1117 -0.9796 0.1671
vn 0.1421 -0.9796 0.1421
vn 0.1671 -0.9796 0.1117
vn 0.1857 -0.9796 0.0769
vn 0.1971 -0.9796 0.0392
vn 0.201 -0.9796 -0
vn 0.1971 -0.9796 -0.0392
vn 0.1857 -0.9796 -0.0769
vn 0.1671 -0.9796 -0.1117
vn 0.1421 -0.9796 -0.1421
vn 0.1117 -0.9796 -0.1671
vn 0.0769 -0.9796 -0.1857
vn 0.0392 -0.9796 -0.1971
vn -0 -1 0
#end 482 normals 

#begin 512 faces
o Sphere002
usemtl 02___Default
g Sphere002
s 1
f 1/1/1 2/2/2 3/3/3 
f 1/1/1 3/3/3 4/4/4 
f 1/1/1 4/4/4 5/5/5 
f 1/1/1 5/5/5 6/6/6 
f 1/1/1 6/6/6 7/7/7 
f 1/1/1 7/7/7 8/8/8 
f 1/1/1 8/8/8 9/9/9 
f 1/1/1 9/9/9 10/10/10 
f 1/1/1 10/10/10 11/11/11 
f 1/1/1 11/11/11 12/12/12 
f 1/1/1 12/12/12 13/13/13 
f 1/1/1 13/13/13 14/14/14 
f 1/1/1 14/14/14 15/15/15 
f 1/1/1 15/15/15 16/16/16 
f 1/1/1 16/16/16 17/17/17 
f 1/1/1 17/17/17 18/18/18 
f 1/1/1 18/483/18 19/19/19 
f 1/1/1 19/19/19 20/20/20 
f 1/1/1 20/20/20 21/21/21 
f 1/1/1 21/21/21 22/22/22 
f 1/1/1 22/22/22 23/23/23 
f 1/1/1 23/23/23 24/24/24 
f 1/1/1 24/24/24 25/25/25 
f 1/1/1 25/25/25 26/26/26 
f 1/1/1 26/26/26 27/27/27 
f 1/1/1 27/27/27 28/28/28 
f 1/1/1 28/28/28 29/29/29 
f 1/1/1 29/29/29 30/30/30 
f 1/1/1 30/30/30 31/31/31 
f 1/1/1 31/31/31 32/32/32 
f 1/1/1 32/32/32 33/33/33 
f 1/1/1 33/33/33 2/2/2 
f 2/2/2 34/34/34 35/35/35 3/3/3 
f 3/3/3 35/35/35 36/36/36 4/4/4 
f 4/4/4 36/36/36 37/37/37 5/5/5 
f 5/5/5 37/37/37 38/38/38 6/6/6 
f 6/6/6 38/38/38 39/39/39 7/7/7 
f 7/7/7 39/39/39 40/40/40 8/8/8 
f 8/8/8 40/40/40 41/41/41 9/9/9 
f 9/9/9 41/41/41 42/42/42 10/10/10 
f 10/10/10 42/42/42 43/43/43 11/11/11 
f 11/11/11 43/43/43 44/44/44 12/12/12 
f 12/12/12 44/44/44 45/45/45 13/13/13 
f 13/13/13 45/45/45 46/46/46 14/14/14 
f 14/14/14 46/46/46 47/47/47 15/15/15 
f 15/15/15 47/47/47 48/48/48 16/16/16 
f 16/16/16 48/48/48 49/49/49 17/17/17 
f 17/17/17 49/49/49 50/50/50 18/18/18 
f 18/483/18 50/487/50 51/51/51 19/19/19 
f 19/19/19 51/51/51 52/52/52 20/20/20 
f 20/20/20 52/52/52 53/53/53 21/21/21 
f 21/21/21 53/53/53 54/54/54 22/22/22 
f 22/22/22 54/54/54 55/55/55 23/23/23 
f 23/23/23 55/55/55 56/56/56 24/24/24 
f 24/24/24 56/56/56 57/57/57 25/25/25 
f 25/25/25 57/57/57 58/58/58 26/26/26 
f 26/26/26 58/58/58 59/59/59 27/27/27 
f 27/27/27 59/59/59 60/60/60 28/28/28 
f 28/28/28 60/60/60 61/61/61 29/29/29 
f 29/29/29 61/61/61 62/62/62 30/30/30 
f 30/30/30 62/62/62 63/63/63 31/31/31 
f 31/31/31 63/63/63 64/64/64 32/32/32 
f 32/32/32 64/64/64 65/65/65 33/33/33 
f 33/33/33 65/65/65 34/34/34 2/2/2 
f 34/34/34 66/66/66 67/67/67 35/35/35 
f 35/35/35 67/67/67 68/68/68 36/36/36 
f 36/36/36 68/68/68 69/69/69 37/37/37 
f 37/37/37 69/69/69 70/70/70 38/38/38 
f 38/38/38 70/70/70 71/71/71 39/39/39 
f 39/39/39 71/71/71 72/72/72 40/40/40 
f 40/40/40 72/72/72 73/73/73 41/41/41 
f 41/41/41 73/73/73 74/74/74 42/42/42 
f 42/42/42 74/74/74 75/75/75 43/43/43 
f 43/43/43 75/75/75 76/76/76 44/44/44 
f 44/44/44 76/76/76 77/77/77 45/45/45 
f 45/45/45 77/77/77 78/78/78 46/46/46 
f 46/46/46 78/78/78 79/79/79 47/47/47 
f 47/47/47 79/79/79 80/80/80 48/48/48 
f 48/48/48 80/80/80 81/81/81 49/49/49 
f 49/49/49 81/81/81 82/82/82 50/50/50 
f 50/487/50 82/484/82 83/83/83 51/51/51 
f 51/51/51 83/83/83 84/84/84 52/52/52 
f 52/52/52 84/84/84 85/85/85 53/53/53 
f 53/53/53 85/85/85 86/86/86 54/54/54 
f 54/54/54 86/86/86 87/87/87 55/55/55 
f 55/55/55 87/87/87 88/88/88 56/56/56 
f 56/56/56 88/88/88 89/89/89 57/57/57 
f 57/57/57 89/89/89 90/90/90 58/58/58 
f 58/58/58 90/90/90 91/91/91 59/59/59 
f 59/59/59 91/91/91 92/92/92 60/60/60 
f 60/60/60 92/92/92 93/93/93 61/61/61 
f 61/61/61 93/93/93 94/94/94 62/62/62 
f 62/62/62 94/94/94 95/95/95 63/63/63 
f 63/63/63 95/95/95 96/96/96 64/64/64 
f 64/64/64 96/96/96 97/97/97 65/65/65 
f 65/65/65 97/97/97 66/66/66 34/34/34 
f 66/66/66 98/98/98 99/99/99 67/67/67 
f 67/67/67 99/99/99 100/100/100 68/68/68 
f 68/68/68 100/100/100 101/101/101 69/69/69 
f 69/69/69 101/101/101 102/102/102 70/70/70 
f 70/70/70 102/102/102 103/103/103 71/71/71 
f 71/71/71 103/103/103 104/104/104 72/72/72 
f 72/72/72 104/104/104 105/105/105 73/73/73 
f 73/73/73 105/105/105 106/106/106 74/74/74 
f 74/74/74 106/106/106 107/107/107 75/75/75 
f 75/75/75 107/107/107 108/108/108 76/76/76 
f 76/76/76 108/108/108 109/109/109 77/77/77 
f 77/77/77 109/109/109 110/110/110 78/78/78 
f 78/78/78 110/110/110 111/111/111 79/79/79 
f 79/79/79 111/111/111 112/112/112 80/80/80 
f 80/80/80 112/112/112 113/113/113 81/81/81 
f 81/81/81 113/113/113 114/114/114 82/82/82 
f 82/484/82 114/488/114 115/115/115 83/83/83 
f 83/83/83 115/115/115 116/116/116 84/84/84 
f 84/84/84 116/116/116 117/117/117 85/85/85 
f 85/85/85 117/117/117 118/118/118 86/86/86 
f 86/86/86 118/118/118 119/119/119 87/87/87 
f 87/87/87 119/119/119 120/120/120 88/88/88 
f 88/88/88 120/120/120 121/121/121 89/89/89 
f 89/89/89 121/121/121 122/122/122 90/90/90 
f 90/90/90 122/122/122 123/123/123 91/91/91 
f 91/91/91 123/123/123 124/124/124 92/92/92 
f 92/92/92 124/124/124 125/125/125 93/93/93 
f 93/93/93 125/125/125 126/126/126 94/94/94 
f 94/94/94 126/126/126 127/127/127 95/95/95 
f 95/95/95 127/127/127 128/128/128 96/96/96 
f 96/96/96 128/128/128 129/129/129 97/97/97 
f 97/97/97 129/129/129 98/98/98 66/66/66 
f 98/98/98 130/130/130 131/131/131 99/99/99 
f 99/99/99 131/131/131 132/132/132 100/100/100 
f 100/100/100 132/132/132 133/133/133 101/101/101 
f 101/101/101 133/133/133 134/134/134 102/102/102 
f 102/102/102 134/134/134 135/135/135 103/103/103 
f 103/103/103 135/135/135 136/136/136 104/104/104 
f 104/104/104 136/136/136 137/137/137 105/105/105 
f 105/105/105 137/137/137 138/138/138 106/106/106 
f 106/106/106 138/138/138 139/139/139 107/107/107 
f 107/107/107 139/139/139 140/140/140 108/108/108 
f 108/108/108 140/140/140 141/141/141 109/109/109 
f 109/109/109 141/141/141 142/142/142 110/110/110 
f 110/110/110 142/142/142 143/143/143 111/111/111 
f 111/111/111 143/143/143 144/144/144 112/112/112 
f 112/112/112 144/144/144 145/145/145 113/113/113 
f 113/113/113 145/145/145 146/146/146 114/114/114 
f 114/488/114 146/485/146 147/147/147 115/115/115 
f 115/115/115 147/147/147 148/148/148 116/116/116 
f 116/116/116 148/148/148 149/149/149 117/117/117 
f 117/117/117 149/149/149 150/150/150 118/118/118 
f 118/118/118 150/150/150 151/151/151 119/119/119 
f 119/119/119 151/151/151 152/152/152 120/120/120 
f 120/120/120 152/152/152 153/153/153 121/121/121 
f 121/121/121 153/153/153 154/154/154 122/122/122 
f 122/122/122 154/154/154 155/155/155 123/123/123 
f 123/123/123 155/155/155 156/156/156 124/124/124 
f 124/124/124 156/156/156 157/157/157 125/125/125 
f 125/125/125 157/157/157 158/158/158 126/126/126 
f 126/126/126 158/158/158 159/159/159 127/127/127 
f 127/127/127 159/159/159 160/160/160 128/128/128 
f 128/128/128 160/160/160 161/161/161 129/129/129 
f 129/129/129 161/161/161 130/130/130 98/98/98 
f 130/130/130 162/162/162 163/163/163 131/131/131 
f 131/131/131 163/163/163 164/164/164 132/132/132 
f 132/132/132 164/164/164 165/165/165 133/133/133 
f 133/133/133 165/165/165 166/166/166 134/134/134 
f 134/134/134 166/166/166 167/167/167 135/135/135 
f 135/135/135 167/167/167 168/168/168 136/136/136 
f 136/136/136 168/168/168 169/169/169 137/137/137 
f 137/137/137 169/169/169 170/170/170 138/138/138 
f 138/138/138 170/170/170 171/171/171 139/139/139 
f 139/139/139 171/171/171 172/172/172 140/140/140 
f 140/140/140 172/172/172 173/173/173 141/141/141 
f 141/141/141 173/173/173 174/174/174 142/142/142 
f 142/142/142 174/174/174 175/175/175 143/143/143 
f 143/143/143 175/175/175 176/176/176 144/144/144 
f 144/144/144 176/176/176 177/177/177 145/145/145 
f 145/145/145 177/177/177 178/178/178 146/146/146 
f 146/485/146 178/489/178 179/179/179 147/147/147 
f 147/147/147 179/179/179 180/180/180 148/148/148 
f 148/148/148 180/180/180 181/181/181 149/149/149 
f 149/149/149 181/181/181 182/182/182 150/150/150 
f 150/150/150 182/182/182 183/183/183 151/151/151 
f 151/151/151 183/183/183 184/184/184 152/152/152 
f 152/152/152 184/184/184 185/185/185 153/153/153 
f 153/153/153 185/185/185 186/186/186 154/154/154 
f 154/154/154 186/186/186 187/187/187 155/155/155 
f 155/155/155 187/187/187 188/188/188 156/156/156 
f 156/156/156 188/188/188 189/189/189 157/157/157 
f 157/157/157 189/189/189 190/190/190 158/158/158 
f 158/158/158 190/190/190 191/191/191 159/159/159 
f 159/159/159 191/191/191 192/192/192 160/160/160 
f 160/160/160 192/192/192 193/193/193 161/161/161 
f 161/161/161 193/193/193 162/162/162 130/130/130 
f 162/162/162 194/194/194 195/195/195 163/163/163 
f 163/163/163 195/195/195 196/196/196 164/164/164 
f 164/164/164 196/196/196 197/197/197 165/165/165 
f 165/165/165 197/197/197 198/198/198 166/166/166 
f 166/166/166 198/198/198 199/199/199 167/167/167 
f 167/167/167 199/199/199 200/200/200 168/168/168 
f 168/168/168 200/200/200 201/201/201 169/169/169 
f 169/169/169 201/201/201 202/202/202 170/170/170 
f 170/170/170 202/202/202 203/203/203 171/171/171 
f 171/171/171 203/203/203 204/204/204 172/172/172 
f 172/172/172 204/204/204 205/205/205 173/173/173 
f 173/173/173 205/205/205 206/206/206 174/174/174 
f 174/174/174 206/206/206 207/207/207 175/175/175 
f 175/175/175 207/207/207 208/208/208 176/176/176 
f 176/176/176 208/208/208 209/209/209 177/177/177 
f 177/177/177 209/209/209 210/210/210 178/178/178 
f 178/489/178 210/486/210 211/211/211 179/179/179 
f 179/179/179 211/211/211 212/212/212 180/180/180 
f 180/180/180 212/212/212 213/213/213 181/181/181 
f 181/181/181 213/213/213 214/214/214 182/182/182 
f 182/182/182 214/214/214 215/215/215 183/183/183 
f 183/183/183 215/215/215 216/216/216 184/184/184 
f 184/184/184 216/216/216 217/217/217 185/185/185 
f 185/185/185 217/217/217 218/218/218 186/186/186 
f 186/186/186 218/218/218 219/219/219 187/187/187 
f 187/187/187 219/219/219 220/220/220 188/188/188 
f 188/188/188 220/220/220 221/221/221 189/189/189 
f 189/189/189 221/221/221 222/222/222 190/190/190 
f 190/190/190 222/222/222 223/223/223 191/191/191 
f 191/191/191 223/223/223 224/224/224 192/192/192 
f 192/192/192 224/224/224 225/225/225 193/193/193 
f 193/193/193 225/225/225 194/194/194 162/162/162 
f 194/194/194 226/226/226 227/227/227 195/195/195 
f 195/195/195 227/227/227 228/228/228 196/196/196 
f 196/196/196 228/228/228 229/229/229 197/197/197 
f 197/197/197 229/229/229 230/230/230 198/198/198 
f 198/198/198 230/230/230 231/231/231 199/199/199 
f 199/199/199 231/231/231 232/232/232 200/200/200 
f 200/200/200 232/232/232 233/233/233 201/201/201 
f 201/201/201 233/233/233 234/234/234 202/202/202 
f 202/202/202 234/234/234 235/235/235 203/203/203 
f 203/203/203 235/235/235 236/236/236 204/204/204 
f 204/204/204 236/236/236 237/237/237 205/205/205 
f 205/205/205 237/237/237 238/238/238 206/206/206 
f 206/206/206 238/238/238 239/239/239 207/207/207 
f 207/207/207 239/239/239 240/240/240 208/208/208 
f 208/208/208 240/240/240 241/241/241 209/209/209 
f 209/209/209 241/241/241 242/242/242 210/210/210 
f 210/486/210 242/490/242 243/243/243 211/211/211 
f 211/211/211 243/243/243 244/244/244 212/212/212 
f 212/212/212 244/244/244 245/245/245 213/213/213 
f 213/213/213 245/245/245 246/246/246 214/214/214 
f 214/214/214 246/246/246 247/247/247 215/215/215 
f 215/215/215 247/247/247 248/248/248 216/216/216 
f 216/216/216 248/248/248 249/249/249 217/217/217 
f 217/217/217 249/249/249 250/250/250 218/218/218 
f 218/218/218 250/250/250 251/251/251 219/219/219 
f 219/219/219 251/251/251 252/252/252 220/220/220 
f 220/220/220 252/252/252 253/253/253 221/221/221 
f 221/221/221 253/253/253 254/254/254 222/222/222 
f 222/222/222 254/254/254 255/255/255 223/223/223 
f 223/223/223 255/255/255 256/256/256 224/224/224 
f 224/224/224 256/256/256 257/257/257 225/225/225 
f 225/225/225 257/257/257 226/226/226 194/194/194 
f 226/226/226 258/258/258 259/259/259 227/227/227 
f 227/227/227 259/259/259 260/260/260 228/228/228 
f 228/228/228 260/260/260 261/261/261 229/229/229 
f 229/229/229 261/261/261 262/262/262 230/230/230 
f 230/230/230 262/262/262 263/263/263 231/231/231 
f 231/231/231 263/263/263 264/264/264 232/232/232 
f 232/232/232 264/264/264 265/265/265 233/233/233 
f 233/233/233 265/265/265 266/266/266 234/234/234 
f 234/234/234 266/266/266 267/267/267 235/235/235 
f 235/235/235 267/267/267 268/268/268 236/236/236 
f 236/236/236 268/268/268 269/269/269 237/237/237 
f 237/237/237 269/269/269 270/270/270 238/238/238 
f 238/238/238 270/270/270 271/271/271 239/239/239 
f 239/239/239 271/271/271 272/272/272 240/240/240 
f 240/240/240 272/272/272 273/273/273 241/241/241 
f 241/241/241 273/273/273 274/274/274 242/242/242 
f 242/490/242 274/497/274 275/275/275 243/243/243 
f 243/243/243 275/275/275 276/276/276 244/244/244 
f 244/244/244 276/276/276 277/277/277 245/245/245 
f 245/245/245 277/277/277 278/278/278 246/246/246 
f 246/246/246 278/278/278 279/279/279 247/247/247 
f 247/247/247 279/279/279 280/280/280 248/248/248 
f 248/248/248 280/280/280 281/281/281 249/249/249 
f 249/249/249 281/281/281 282/282/282 250/250/250 
f 250/250/250 282/282/282 283/283/283 251/251/251 
f 251/251/251 283/283/283 284/284/284 252/252/252 
f 252/252/252 284/284/284 285/285/285 253/253/253 
f 253/253/253 285/285/285 286/286/286 254/254/254 
f 254/254/254 286/286/286 287/287/287 255/255/255 
f 255/255/255 287/287/287 288/288/288 256/256/256 
f 256/256/256 288/288/288 289/289/289 257/257/257 
f 257/257/257 289/289/289 258/258/258 226/226/226 
f 258/258/258 290/290/290 291/291/291 259/259/259 
f 259/259/259 291/291/291 292/292/292 260/260/260 
f 260/260/260 292/292/292 293/293/293 261/261/261 
f 261/261/261 293/293/293 294/294/294 262/262/262 
f 262/262/262 294/294/294 295/295/295 263/263/263 
f 263/263/263 295/295/295 296/296/296 264/264/264 
f 264/264/264 296/296/296 297/297/297 265/265/265 
f 265/265/265 297/297/297 298/298/298 266/266/266 
f 266/266/266 298/298/298 299/299/299 267/267/267 
f 267/267/267 299/299/299 300/300/300 268/268/268 
f 268/268/268 300/300/300 301/301/301 269/269/269 
f 269/269/269 301/301/301 302/302/302 270/270/270 
f 270/270/270 302/302/302 303/303/303 271/271/271 
f 271/271/271 303/303/303 304/304/304 272/272/272 
f 272/272/272 304/304/304 305/305/305 273/273/273 
f 273/273/273 305/305/305 306/306/306 274/274/274 
f 274/497/274 306/493/306 307/307/307 275/275/275 
f 275/275/275 307/307/307 308/308/308 276/276/276 
f 276/276/276 308/308/308 309/309/309 277/277/277 
f 277/277/277 309/309/309 310/310/310 278/278/278 
f 278/278/278 310/310/310 311/311/311 279/279/279 
f 279/279/279 311/311/311 312/312/312 280/280/280 
f 280/280/280 312/312/312 313/313/313 281/281/281 
f 281/281/281 313/313/313 314/314/314 282/282/282 
f 282/282/282 314/314/314 315/315/315 283/283/283 
f 283/283/283 315/315/315 316/316/316 284/284/284 
f 284/284/284 316/316/316 317/317/317 285/285/285 
f 285/285/285 317/317/317 318/318/318 286/286/286 
f 286/286/286 318/318/318 319/319/319 287/287/287 
f 287/287/287 319/319/319 320/320/320 288/288/288 
f 288/288/288 320/320/320 321/321/321 289/289/289 
f 289/289/289 321/321/321 290/290/290 258/258/258 
f 290/290/290 322/322/322 323/323/323 291/291/291 
f 291/291/291 323/323/323 324/324/324 292/292/292 
f 292/292/292 324/324/324 325/325/325 293/293/293 
f 293/293/293 325/325/325 326/326/326 294/294/294 
f 294/294/294 326/326/326 327/327/327 295/295/295 
f 295/295/295 327/327/327 328/328/328 296/296/296 
f 296/296/296 328/328/328 329/329/329 297/297/297 
f 297/297/297 329/329/329 330/330/330 298/298/298 
f 298/298/298 330/330/330 331/331/331 299/299/299 
f 299/299/299 331/331/331 332/332/332 300/300/300 
f 300/300/300 332/332/332 333/333/333 301/301/301 
f 301/301/301 333/333/333 334/334/334 302/302/302 
f 302/302/302 334/334/334 335/335/335 303/303/303 
f 303/303/303 335/335/335 336/336/336 304/304/304 
f 304/304/304 336/336/336 337/337/337 305/305/305 
f 305/305/305 337/337/337 338/338/338 306/306/306 
f 306/493/306 338/496/338 339/339/339 307/307/307 
f 307/307/307 339/339/339 340/340/340 308/308/308 
f 308/308/308 340/340/340 341/341/341 309/309/309 
f 309/309/309 341/341/341 342/342/342 310/310/310 
f 310/310/310 342/342/342 343/343/343 311/311/311 
f 311/311/311 343/343/343 344/344/344 312/312/312 
f 312/312/312 344/344/344 345/345/345 313/313/313 
f 313/313/313 345/345/345 346/346/346 314/314/314 
f 314/314/314 346/346/346 347/347/347 315/315/315 
f 315/315/315 347/347/347 348/348/348 316/316/316 
f 316/316/316 348/348/348 349/349/349 317/317/317 
f 317/317/317 349/349/349 350/350/350 318/318/318 
f 318/318/318 350/350/350 351/351/351 319/319/319 
f 319/319/319 351/351/351 352/352/352 320/320/320 
f 320/320/320 352/352/352 353/353/353 321/321/321 
f 321/321/321 353/353/353 322/322/322 290/290/290 
f 322/322/322 354/354/354 355/355/355 323/323/323 
f 323/323/323 355/355/355 356/356/356 324/324/324 
f 324/324/324 356/356/356 357/357/357 325/325/325 
f 325/325/325 357/357/357 358/358/358 326/326/326 
f 326/326/326 358/358/358 359/359/359 327/327/327 
f 327/327/327 359/359/359 360/360/360 328/328/328 
f 328/328/328 360/360/360 361/361/361 329/329/329 
f 329/329/329 361/361/361 362/362/362 330/330/330 
f 330/330/330 362/362/362 363/363/363 331/331/331 
f 331/331/331 363/363/363 364/364/364 332/332/332 
f 332/332/332 364/364/364 365/365/365 333/333/333 
f 333/333/333 365/365/365 366/366/366 334/334/334 
f 334/334/334 366/366/366 367/367/367 335/335/335 
f 335/335/335 367/367/367 368/368/368 336/336/336 
f 336/336/336 368/368/368 369/369/369 337/337/337 
f 337/337/337 369/369/369 370/370/370 338/338/338 
f 338/496/338 370/492/370 371/371/371 339/339/339 
f 339/339/339 371/371/371 372/372/372 340/340/340 
f 340/340/340 372/372/372 373/373/373 341/341/341 
f 341/341/341 373/373/373 374/374/374 342/342/342 
f 342/342/342 374/374/374 375/375/375 343/343/343 
f 343/343/343 375/375/375 376/376/376 344/344/344 
f 344/344/344 376/376/376 377/377/377 345/345/345 
f 345/345/345 377/377/377 378/378/378 346/346/346 
f 346/346/346 378/378/378 379/379/379 347/347/347 
f 347/347/347 379/379/379 380/380/380 348/348/348 
f 348/348/348 380/380/380 381/381/381 349/349/349 
f 349/349/349 381/381/381 382/382/382 350/350/350 
f 350/350/350 382/382/382 383/383/383 351/351/351 
f 351/351/351 383/383/383 384/384/384 352/352/352 
f 352/352/352 384/384/384 385/385/385 353/353/353 
f 353/353/353 385/385/385 354/354/354 322/322/322 
f 354/354/354 386/386/386 387/387/387 355/355/355 
f 355/355/355 387/387/387 388/388/388 356/356/356 
f 356/356/356 388/388/388 389/389/389 357/357/357 
f 357/357/357 389/389/389 390/390/390 358/358/358 
f 358/358/358 390/390/390 391/391/391 359/359/359 
f 359/359/359 391/391/391 392/392/392 360/360/360 
f 360/360/360 392/392/392 393/393/393 361/361/361 
f 361/361/361 393/393/393 394/394/394 362/362/362 
f 362/362/362 394/394/394 395/395/395 363/363/363 
f 363/363/363 395/395/395 396/396/396 364/364/364 
f 364/364/364 396/396/396 397/397/397 365/365/365 
f 365/365/365 397/397/397 398/398/398 366/366/366 
f 366/366/366 398/398/398 399/399/399 367/367/367 
f 367/367/367 399/399/399 400/400/400 368/368/368 
f 368/368/368 400/400/400 401/401/401 369/369/369 
f 369/369/369 401/401/401 402/402/402 370/370/370 
f 370/492/370 402/495/402 403/403/403 371/371/371 
f 371/371/371 403/403/403 404/404/404 372/372/372 
f 372/372/372 404/404/404 405/405/405 373/373/373 
f 373/373/373 405/405/405 406/406/406 374/374/374 
f 374/374/374 406/406/406 407/407/407 375/375/375 
f 375/375/375 407/407/407 408/408/408 376/376/376 
f 376/376/376 408/408/408 409/409/409 377/377/377 
f 377/377/377 409/409/409 410/410/410 378/378/378 
f 378/378/378 410/410/410 411/411/411 379/379/379 
f 379/379/379 411/411/411 412/412/412 380/380/380 
f 380/380/380 412/412/412 413/413/413 381/381/381 
f 381/381/381 413/413/413 414/414/414 382/382/382 
f 382/382/382 414/414/414 415/415/415 383/383/383 
f 383/383/383 415/415/415 416/416/416 384/384/384 
f 384/384/384 416/416/416 417/417/417 385/385/385 
f 385/385/385 417/417/417 386/386/386 354/354/354 
f 386/386/386 418/418/418 419/419/419 387/387/387 
f 387/387/387 419/419/419 420/420/420 388/388/388 
f 388/388/388 420/420/420 421/421/421 389/389/389 
f 389/389/389 421/421/421 422/422/422 390/390/390 
f 390/390/390 422/422/422 423/423/423 391/391/391 
f 391/391/391 423/423/423 424/424/424 392/392/392 
f 392/392/392 424/424/424 425/425/425 393/393/393 
f 393/393/393 425/425/425 426/426/426 394/394/394 
f 394/394/394 426/426/426 427/427/427 395/395/395 
f 395/395/395 427/427/427 428/428/428 396/396/396 
f 396/396/396 428/428/428 429/429/429 397/397/397 
f 397/397/397 429/429/429 430/430/430 398/398/398 
f 398/398/398 430/430/430 431/431/431 399/399/399 
f 399/399/399 431/431/431 432/432/432 400/400/400 
f 400/400/400 432/432/432 433/433/433 401/401/401 
f 401/401/401 433/433/433 434/434/434 402/402/402 
f 402/495/402 434/491/434 435/435/435 403/403/403 
f 403/403/403 435/435/435 436/436/436 404/404/404 
f 404/404/404 436/436/436 437/437/437 405/405/405 
f 405/405/405 437/437/437 438/438/438 406/406/406 
f 406/406/406 438/438/438 439/439/439 407/407/407 
f 407/407/407 439/439/439 440/440/440 408/408/408 
f 408/408/408 440/440/440 441/441/441 409/409/409 
f 409/409/409 441/441/441 442/442/442 410/410/410 
f 410/410/410 442/442/442 443/443/443 411/411/411 
f 411/411/411 443/443/443 444/444/444 412/412/412 
f 412/412/412 444/444/444 445/445/445 413/413/413 
f 413/413/413 445/445/445 446/446/446 414/414/414 
f 414/414/414 446/446/446 447/447/447 415/415/415 
f 415/415/415 447/447/447 448/448/448 416/416/416 
f 416/416/416 448/448/448 449/449/449 417/417/417 
f 417/417/417 449/449/449 418/418/418 386/386/386 
f 418/418/418 450/450/450 451/451/451 419/419/419 
f 419/419/419 451/451/451 452/452/452 420/420/420 
f 420/420/420 452/452/452 453/453/453 421/421/421 
f 421/421/421 453/453/453 454/454/454 422/422/422 
f 422/422/422 454/454/454 455/455/455 423/423/423 
f 423/423/423 455/455/455 456/456/456 424/424/424 
f 424/424/424 456/456/456 457/457/457 425/425/425 
f 425/425/425 457/457/457 458/458/458 426/426/426 
f 426/426/426 458/458/458 459/459/459 427/427/427 
f 427/427/427 459/459/459 460/460/460 428/428/428 
f 428/428/428 460/460/460 461/461/461 429/429/429 
f 429/429/429 461/461/461 462/462/462 430/430/430 
f 430/430/430 462/462/462 463/463/463 431/431/431 
f 431/431/431 463/463/463 464/464/464 432/432/432 
f 432/432/432 464/464/464 465/465/465 433/433/433 
f 433/433/433 465/465/465 466/466/466 434/434/434 
f 434/491/434 466/494/466 467/467/467 435/435/435 
f 435/435/435 467/467/467 468/468/468 436/436/436 
f 436/436/436 468/468/468 469/469/469 437/437/437 
f 437/437/437 469/469/469 470/470/470 438/438/438 
f 438/438/438 470/470/470 471/471/471 439/439/439 
f 439/439/439 471/471/471 472/472/472 440/440/440 
f 440/440/440 472/472/472 473/473/473 441/441/441 
f 441/441/441 473/473/473 474/474/474 442/442/442 
f 442/442/442 474/474/474 475/475/475 443/443/443 
f 443/443/443 475/475/475 476/476/476 444/444/444 
f 444/444/444 476/476/476 477/477/477 445/445/445 
f 445/445/445 477/477/477 478/478/478 446/446/446 
f 446/446/446 478/478/478 479/479/479 447/447/447 
f 447/447/447 479/479/479 480/480/480 448/448/448 
f 448/448/448 480/480/480 481/481/481 449/449/449 
f 449/449/449 481/481/481 450/450/450 418/418/418 
f 482/482/482 451/451/451 450/450/450 
f 482/482/482 452/452/452 451/451/451 
f 482/482/482 453/453/453 452/452/452 
f 482/482/482 454/454/454 453/453/453 
f 482/482/482 455/455/455 454/454/454 
f 482/482/482 456/456/456 455/455/455 
f 482/482/482 457/457/457 456/456/456 
f 482/482/482 458/458/458 457/457/457 
f 482/482/482 459/459/459 458/458/458 
f 482/482/482 460/460/460 459/459/459 
f 482/482/482 461/461/461 460/460/460 
f 482/482/482 462/462/462 461/461/461 
f 482/482/482 463/463/463 462/462/462 
f 482/482/482 464/464/464 463/463/463 
f 482/482/482 465/465/465 464/464/464 
f 482/482/482 466/466/466 465/465/465 
f 482/482/482 467/467/467 466/494/466 
f 482/482/482 468/468/468 467/467/467 
f 482/482/482 469/469/469 468/468/468 
f 482/482/482 470/470/470 469/469/469 
f 482/482/482 471/471/471 470/470/470 
f 482/482/482 472/472/472 471/471/471 
f 482/482/482 473/473/473 472/472/472 
f 482/482/482 474/474/474 473/473/473 
f 482/482/482 475/475/475 474/474/474 
f 482/482/482 476/476/476 475/475/475 
f 482/482/482 477/477/477 476/476/476 
f 482/482/482 478/478/478 477/477/477 
f 482/482/482 479/479/479 478/478/478 
f 482/482/482 480/480/480 479/479/479 
f 482/482/482 481/481/481 480/480/480 
f 482/482/482 450/450/450 481/481/481 
#end 512 faces

#ZOMPROPERTIES_04{
#ZOMPROPERTIES_04 table {Mesh table {SymPlane table {Point vector3d 0 0 0 Normal vector3d 1 0 0 Threshold double 0.01 
#ZOMPROPERTIES_04 Enabled bool false EdgeID int -1 SymEdgeID int -1 UPos double 0.5 LocalMode bool false } RootGroup C
#ZOMPROPERTIES_04 SubMeshGroup {Children table {Tile_0_0 CSubMeshGroup {Children table {} BBoxUV box3d 0 0 0 0 0 0 BBo
#ZOMPROPERTIES_04 x3D box3d 0 0 0 0 0 0 Area3D double 0 AreaUV double 0 IsRoot bool false Properties table {Selected b
#ZOMPROPERTIES_04 ool false Box box3d 0 1 0 1 0 1 U int 0 V int 0 NU int 0 NV int 0 Tiling vector3d 1 1 1 TileRatioMod
#ZOMPROPERTIES_04 e string "1:1" Overflow string "Off" Pack table {BoxFrameEdit bool false Behavior string "Free" Lock
#ZOMPROPERTIES_04 ed bool false Scaling table {Optimization string "Fill" } } Hotspot table {} } IsTile bool true Poly
#ZOMPROPERTIES_04 IDs ints { 0 32 33 34 35 36 37 38 39 40 41 42 43 44 45 46 47 79 111 143 175 207 239 271 303 335 367 
#ZOMPROPERTIES_04 399 431 463 495 494 493 461 460 459 458 457 456 455 454 453 452 451 450 449 448 479 478 477 476 475 
#ZOMPROPERTIES_04 474 473 472 471 470 469 468 467 466 465 464 432 400 368 336 304 272 240 208 176 144 112 80 48 16 17 
#ZOMPROPERTIES_04 18 50 51 52 53 54 55 56 57 58 59 60 61 62 63 94 95 127 96 97 98 99 100 101 102 103 104 105 106 107 1
#ZOMPROPERTIES_04 08 109 110 141 142 173 174 205 206 237 238 269 270 301 302 333 334 365 366 397 398 429 396 395 394 3
#ZOMPROPERTIES_04 93 392 391 390 389 388 387 386 385 384 415 414 413 412 411 410 409 408 407 406 405 404 403 402 401 3
#ZOMPROPERTIES_04 70 369 338 337 306 305 274 273 242 241 210 209 178 177 146 145 114 113 82 115 116 117 118 119 120 12
#ZOMPROPERTIES_04 1 122 123 124 125 157 158 190 191 160 161 162 163 164 165 166 167 168 169 170 171 172 203 204 235 23
#ZOMPROPERTIES_04 6 267 268 299 300 331 332 363 330 329 328 327 326 325 324 323 322 321 320 351 350 349 348 347 346 34
#ZOMPROPERTIES_04 5 344 343 342 341 340 339 308 307 276 275 244 243 212 211 180 179 148 181 182 183 184 185 186 187 18
#ZOMPROPERTIES_04 8 220 221 253 254 255 224 225 226 227 228 229 230 231 232 233 234 265 266 297 264 296 201 263 295 20
#ZOMPROPERTIES_04 0 262 294 199 261 293 198 260 292 197 259 291 196 258 290 195 257 289 194 256 288 193 287 319 192 28
#ZOMPROPERTIES_04 6 318 223 285 317 222 284 283 282 281 280 279 278 277 246 245 214 247 215 310 248 216 311 249 217 31
#ZOMPROPERTIES_04 2 250 218 313 251 314 315 316 252 219 155 154 153 152 151 213 150 149 309 372 373 374 375 376 377 37
#ZOMPROPERTIES_04 8 379 380 381 382 383 352 353 354 355 356 357 358 359 360 298 361 362 202 139 138 137 136 135 134 13
#ZOMPROPERTIES_04 3 132 131 130 129 128 159 189 156 92 91 90 89 88 87 86 85 147 84 83 371 434 435 436 437 438 439 440 
#ZOMPROPERTIES_04 441 442 443 444 445 446 447 416 417 418 419 420 421 422 423 424 425 426 364 427 428 140 77 76 75 74 
#ZOMPROPERTIES_04 73 72 71 70 69 68 67 66 65 64 126 93 30 29 28 27 26 25 24 23 22 21 20 81 49 19 433 496 497 498 499 5
#ZOMPROPERTIES_04 00 501 502 503 504 505 506 507 508 509 510 511 480 481 482 483 484 485 486 487 488 489 490 491 430 4
#ZOMPROPERTIES_04 62 492 78 15 14 13 12 11 10 9 8 7 6 5 4 3 2 31 1 } } } BBoxUV box3d 0 0 0 0 0 0 BBox3D box3d 0 0 0 0
#ZOMPROPERTIES_04  0 0 Area3D double 0 AreaUV double 0 IsRoot bool true Properties table {Selected bool false Box box3
#ZOMPROPERTIES_04 d 0 1 0 1 0 1 U int 0 V int 0 NU int 1 NV int 1 Tiling vector3d 1 1 1 TileRatioMode string "1:1" Ove
#ZOMPROPERTIES_04 rflow string "Off" Pack table {Rotate table {Mode int 1 Min double 0 Max double 90 Step double 0 } R
#ZOMPROPERTIES_04 esolution int 512 MapResolution int 2048 PaddingSize double 0.0078125 MarginSize double 0.00195312 S
#ZOMPROPERTIES_04 caling table {TexelDensity double 1024 Mode int 2 Optimization string "Fill" } LayoutScalingMode int
#ZOMPROPERTIES_04  2 MaxMutations int 1 } Hotspot table {} } IsTile bool false PolyIDs ints { } } Maps table {Pin CDat
#ZOMPROPERTIES_04 aMap {PrimType string "Vertex" Size int 1 DefaultValue double 0 ScaleType string "Normalized" MergeM
#ZOMPROPERTIES_04 ode string "Max" MinValue double 0 MaxValue double 1 Data doubles { r 497 0 } } Density CDataMap {Pr
#ZOMPROPERTIES_04 imType string "Polygon" Size int 1 DefaultValue double 1 ScaleType string "Log" MergeMode string "Av
#ZOMPROPERTIES_04 erage" MinValue double 0.1 MaxValue double 4 Data doubles { r 512 1 } } Protect CDataMap {PrimType s
#ZOMPROPERTIES_04 tring "Vertex" Size int 1 DefaultValue double 0 ScaleType string "Normalized" MergeMode string "Aver
#ZOMPROPERTIES_04 age" MinValue double -1 MaxValue double 1 Data doubles { r 497 0 } } } } }
#ZOMPROPERTIES_04}


#ZOMSCENE_01{
#ZOMSCENE_01 CScene {Settings table {AxisSystem table {UpVector string "y" } Unit string "cm" TexelDensityDisplay
#ZOMSCENE_01 Unit string "tx/cm" } Root CXForm {} }
#ZOMSCENE_01}

#begin 0 fatal error vertex (that RizomUV cannot handle)
#end 0 fatal error vertex (that RizomUV cannot handle)

#begin 0 error vertex
#end 0 error vertex
