# 3ds Max Wavefront OBJ Exporter v0.99 - (c)2007 guruware
# File Created: 10.04.2026 00:53:39

mtllib Crystal_Ground.mtl

#
# object Cylinder004
#

v  16.5128 1.6227 31.5280
v  29.0726 2.1074 19.3248
v  26.2516 5.2631 17.7506
v  15.0254 5.3576 28.3008
v  32.7850 1.7095 2.2381
v  29.3354 5.3576 2.6567
v  34.5005 3.4670 -8.5301
v  36.9350 0.3594 -21.3356
v  35.3694 3.0581 -19.6771
v  34.3237 2.8773 -8.5766
v  27.2357 5.2284 -28.3251
v  13.3581 5.4063 -36.2921
v  12.5426 8.4786 -33.1242
v  25.3909 8.2527 -26.7210
v  -11.9796 5.2676 -27.5628
v  -10.7107 8.4084 -24.8207
v  -23.5480 2.1587 -26.6077
v  -35.9879 1.2987 -16.9203
v  -34.4711 3.2808 -16.1157
v  -23.1007 3.2640 -25.6422
v  -39.9750 1.2468 -5.2041
v  -36.4960 2.1177 6.9022
v  -33.1201 5.3126 6.9834
v  -36.6673 5.3101 -3.3090
v  -29.5019 1.6648 22.9483
v  -26.9114 5.3679 20.5415
v  -20.4645 -0.2814 30.1273
v  -4.8995 1.2080 35.0505
v  -4.8223 2.2336 26.7653
v  -18.6182 2.5894 28.8100
v  5.1670 -0.3477 34.8735
v  3.9367 2.5306 32.9038
v  9.9391 5.3856 27.2585
v  22.4695 5.3856 15.6400
v  -1.6746 5.3856 2.1670
v  30.1732 5.3856 -1.1246
v  27.4736 5.3856 -24.0180
v  -0.7293 8.4786 -3.2561
v  -13.2884 5.3856 -22.9244
v  -33.1599 5.3856 -6.2331
v  -29.1268 5.3856 5.4587
v  -21.9491 5.3856 20.9660
v  -3.1312 5.3856 18.8103
v  20.0522 -9.9876 40.6180
v  37.2462 -9.8856 24.8527
v  41.7338 -9.9478 1.6805
v  41.5626 -5.8577 -8.9718
v  42.0538 -5.8122 -25.7636
v  13.5428 0.0558 -37.3672
v  31.2275 0.0558 -27.4987
v  42.8013 -14.2559 -37.6700
v  18.8527 -14.2559 -51.0339
v  -15.4387 0.0558 -27.5702
v  -20.3941 -14.2559 -37.7668
v  -26.2568 -5.7778 -32.2061
v  -42.4625 -5.7791 -18.4356
v  -50.4947 -10.0488 -7.6940
v  -46.8030 -10.0244 8.4018
v  -36.8347 -10.0193 29.9529
v  -23.8388 -5.7182 33.2125
v  -5.6809 -5.6065 38.7889
v  6.8321 -5.6894 38.9189
v  12.0894 0.0558 31.9042
v  16.4727 -14.2559 43.1390
v  36.5831 -14.2559 24.4922
v  46.2880 -14.2559 -2.4140
v  35.2561 0.0558 -1.7341
v  -37.6303 0.0558 -8.7276
v  -50.8578 -14.2559 -11.8846
v  -46.2256 -14.2559 8.1518
v  -34.7059 -14.2559 33.0401
v  -25.7030 0.0558 24.4467
v  35.2344 0.1270 -2.8578
v  30.9517 4.4919 -2.3552
v  45.6192 -13.3715 -3.4988
v  42.0640 -13.3644 -35.7444
v  31.5431 -0.3795 -26.5095
v  28.1464 4.5217 -23.3259
v  -16.3647 -0.0896 -26.9464
v  -14.4930 4.5527 -22.9017
v  -20.9534 -13.3625 -36.3928
v  -49.0925 -13.3627 -12.4853
v  -36.9664 -0.2298 -9.5965
v  -32.9784 4.5552 -7.3784
v  9.0879 4.4960 27.5305
v  11.0877 -0.4332 31.7409
v  -3.2798 4.4472 19.4577
v  -21.2795 4.5050 21.5957
v  -24.7223 -0.4225 24.7252
v  -32.8074 -13.2869 32.4211
v  -5.6271 -14.2559 42.1649
v  -5.5093 -13.2685 41.6202
v  15.0276 -13.2822 41.8039
# 93 vertices

vn 0.7130 0.6640 0.2253
vn 0.6077 0.6560 -0.4476
vn 0.5835 0.6927 -0.4239
vn 0.6511 0.7078 0.2742
vn 0.4024 0.6279 -0.6662
vn 0.3999 0.6561 -0.6400
vn -0.0443 0.7102 -0.7026
vn -0.0077 0.7088 -0.7054
vn -0.6354 0.6926 -0.3415
vn -0.6243 0.7033 -0.3400
vn -0.7624 0.6442 0.0615
vn -0.7337 0.6761 0.0674
vn -0.5040 0.6985 0.5080
vn -0.4336 0.7138 0.5500
vn -0.0706 0.6477 0.7586
vn -0.0546 0.6569 0.7520
vn 0.4261 0.6680 0.6101
vn 0.4439 0.7084 0.5487
vn 0.6531 0.5739 0.4940
vn 0.6257 0.6206 0.4727
vn 0.0000 1.0000 -0.0000
vn 0.7477 0.6383 0.1828
vn 0.6336 0.6272 -0.4529
vn 0.4037 0.6063 -0.6851
vn -0.0869 0.7156 -0.6931
vn -0.6085 0.6947 -0.3836
vn -0.7850 0.6163 0.0633
vn -0.4887 0.6879 0.5366
vn -0.0836 0.6442 0.7603
vn 0.3866 0.6484 0.6559
vn 0.6830 0.5164 0.5166
vn 0.0148 0.9999 -0.0079
vn 0.6395 0.6122 0.4650
vn 0.6679 0.5849 0.4602
vn 0.9413 -0.1477 -0.3035
vn 0.6253 0.2800 -0.7285
vn 0.5455 0.5843 -0.6009
vn 0.4573 0.6688 -0.5862
vn 0.0223 0.9996 -0.0193
vn 0.2803 0.5829 -0.7627
vn -0.5694 0.2113 -0.7944
vn -0.9758 0.1935 -0.1022
vn -0.5588 0.5370 0.6319
vn -0.0010 0.7155 0.6986
vn 0.6299 0.7515 -0.1961
vn -0.7144 0.6677 0.2094
vn -0.7440 0.6218 0.2445
vn -0.2034 -0.1415 0.9688
vn -0.0001 -0.1477 0.9890
vn 0.7115 0.5545 0.4316
vn 0.7058 0.5800 0.4068
vn -0.0017 0.9999 0.0100
vn -0.0019 0.9998 0.0173
vn 0.2909 0.6955 -0.6570
vn 0.3474 0.6096 -0.7125
vn 0.2483 0.6416 -0.7257
vn 0.3431 0.6223 -0.7036
vn 0.3174 0.5839 -0.7472
vn 0.2310 0.6509 -0.7232
vn -0.7064 0.6783 0.2022
vn -0.7655 0.6090 0.2078
vn -0.7646 0.6085 0.2123
vn -0.7628 0.6095 0.2159
vn -0.7192 0.6668 0.1953
vn -0.7129 0.6740 0.1935
vn 0.5571 0.5282 0.6408
vn 0.4312 0.5843 0.6875
vn 0.7673 0.5900 0.2511
vn 0.7554 0.5468 0.3611
vn 0.7887 0.5068 0.3479
vn 0.5491 0.6625 0.5095
vn 0.6528 0.6849 0.3237
vn 0.5490 0.4959 0.6728
vn 0.4937 0.7269 -0.4774
vn 0.5389 0.5834 -0.6076
vn 0.3487 0.2767 -0.8954
vn -0.3209 0.7280 -0.6058
vn -0.3457 0.6701 -0.6569
vn 0.1083 0.9608 -0.2551
vn -0.6380 0.6128 -0.4662
vn -0.6987 0.5441 -0.4644
vn -0.9631 -0.0320 0.2674
vn -0.2764 0.6723 0.6868
vn -0.2972 0.6212 0.7251
vn -0.1598 0.9862 0.0428
vn 0.7425 0.6656 -0.0754
vn 0.1354 0.9592 0.2483
vn 0.2650 0.9617 0.0698
vn 0.1322 0.6617 0.7380
vn 0.1735 0.6504 0.7396
vn 0.7005 0.2929 0.6508
vn 0.8477 0.3471 0.4011
vn 0.7685 0.6385 -0.0402
# 93 vertex normals

vt 0.8817 0.4743 0.6984
vt 0.8165 0.6384 0.7198
vt 0.7871 0.6196 0.8586
vt 0.8417 0.4744 0.8627
vt 0.6596 0.7432 0.7023
vt 0.6476 0.7104 0.8627
vt 0.5578 0.8036 0.7796
vt 0.4386 0.8790 0.6429
vt 0.4481 0.8579 0.7616
vt 0.5565 0.8022 0.7536
vt 0.3214 0.8207 0.8570
vt 0.1745 0.7288 0.8649
vt 0.2030 0.7083 1.0000
vt 0.3291 0.7974 0.9901
vt 0.1439 0.4640 0.8588
vt 0.1779 0.4640 0.9969
vt 0.0990 0.3558 0.7220
vt 0.1391 0.2032 0.6842
vt 0.1545 0.2135 0.7714
vt 0.1110 0.3558 0.7706
vt 0.2399 0.1184 0.6819
vt 0.3799 0.0992 0.7202
vt 0.3967 0.1293 0.8607
vt 0.2748 0.1403 0.8606
vt 0.5767 0.0953 0.7003
vt 0.5644 0.1287 0.8632
vt 0.6927 0.1468 0.6147
vt 0.8165 0.2666 0.6802
vt 0.7323 0.3019 0.7253
vt 0.6880 0.1690 0.7410
vt 0.8622 0.3581 0.6118
vt 0.8363 0.3552 0.7384
vt 0.8070 0.4329 0.8640
vt 0.7476 0.5943 0.8640
vt 0.4961 0.4329 0.8640
vt 0.6129 0.7337 0.8640
vt 0.3665 0.8049 0.8640
vt 0.4452 0.4640 1.0000
vt 0.1851 0.4329 0.8640
vt 0.2616 0.1841 0.8640
vt 0.4000 0.1717 0.8640
vt 0.5922 0.1717 0.8640
vt 0.6591 0.3503 0.8640
vt 0.9912 0.4683 0.1877
vt 0.9115 0.6891 0.1922
vt 0.6962 0.8262 0.1895
vt 0.5866 0.8691 0.3694
vt 0.4176 0.9436 0.3714
vt 0.1644 0.7350 0.6295
vt 0.3487 0.8532 0.6295
vt 0.2996 1.0000 0.0000
vt 0.0500 0.8399 0.0000
vt 0.1275 0.4329 0.6295
vt 0.0000 0.4307 0.0000
vt 0.0291 0.3547 0.3729
vt 0.0931 0.1512 0.3729
vt 0.1647 0.0339 0.1851
vt 0.3465 0.0001 0.1861
vt 0.6136 0.0000 0.1864
vt 0.7082 0.1035 0.3755
vt 0.8509 0.2440 0.3805
vt 0.9114 0.3562 0.3768
vt 0.8646 0.4329 0.6295
vt 1.0000 0.4255 0.0000
vt 0.4255 0.0000 1.0000
vt 0.6846 0.0000 0.9047
vt 0.6891 0.1922 0.9115
vt 0.4683 0.1877 0.9912
vt 0.9047 0.6846 0.0000
vt 0.6759 0.8843 0.0000
vt 0.6307 0.7821 0.6295
vt 0.2650 0.6295 0.1644
vt 0.5671 0.6295 0.1275
vt 0.5360 0.8588 0.1439
vt 0.2712 0.8649 0.1745
vt 0.2150 0.1542 0.6295
vt 0.1203 0.0482 0.0000
vt 0.1203 0.0000 0.0482
vt 0.3467 0.0000 0.0063
vt 0.3465 0.1861 0.0001
vt 0.1647 0.1851 0.0339
vt 0.6551 0.0000 0.0063
vt 0.6136 0.1864 0.0000
vt 0.6551 0.0063 0.0000
vt 0.6099 0.1233 0.6295
vt 0.6191 0.7865 0.6326
vt 0.6040 0.7458 0.8246
vt 0.6617 0.8828 0.0389
vt 0.3157 0.9853 0.0392
vt 0.3603 0.8520 0.6104
vt 0.3767 0.8080 0.8260
vt 0.1295 0.4219 0.6231
vt 0.1796 0.4219 0.8273
vt 0.0114 0.4200 0.0393
vt 0.1225 0.0666 0.0393
vt 0.2092 0.1638 0.6170
vt 0.2507 0.1905 0.8274
vt 0.8058 0.4241 0.8248
vt 0.8582 0.4245 0.6080
vt 0.6650 0.3463 0.8227
vt 0.6017 0.1751 0.8252
vt 0.6174 0.1310 0.6085
vt 0.6578 0.0260 0.0426
vt 0.8856 0.2304 0.0000
vt 0.8806 0.2337 0.0434
vt 0.9795 0.4181 0.0428
vt 0.5800 0.0393 0.0114
vt 0.9334 0.0393 0.1225
vt 0.8488 0.3729 0.0931
vt 0.6453 0.3729 0.0291
# 110 texture coords

o Cylinder004
g Cylinder004
usemtl wire_092017054
s off
f 1/1/1 2/2/2 3/3/3 4/4/4 
f 2/2/2 5/5/5 6/6/6 3/3/3 
f 7/7/5 8/8/7 9/9/8 10/10/6 
f 11/11/7 12/12/9 13/13/10 14/14/8 
f 12/12/9 15/15/11 16/16/12 13/13/10 
f 17/17/11 18/18/13 19/19/14 20/20/12 
f 21/21/13 22/22/15 23/23/16 24/24/14 
f 22/22/15 25/25/17 26/26/18 23/23/16 
f 27/27/17 28/28/19 29/29/20 30/30/18 
f 28/28/19 31/31/1 32/32/4 29/29/20 
f 33/33/21 34/34/21 35/35/21 
f 34/34/21 36/36/21 35/35/21 
f 36/36/21 37/37/21 35/35/21 
f 14/14/21 13/13/21 38/38/21 
f 13/13/21 16/16/21 38/38/21 
f 39/39/21 40/40/21 35/35/21 
f 40/40/21 41/41/21 35/35/21 
f 41/41/21 42/42/21 35/35/21 
f 42/42/21 43/43/21 35/35/21 
f 43/43/21 33/33/21 35/35/21 
f 2/2/2 1/1/1 44/44/22 45/45/23 
f 5/5/5 2/2/2 45/45/23 46/46/24 
f 8/8/7 7/7/5 47/47/24 48/48/25 
f 49/49/9 50/50/7 51/51/25 52/52/26 
f 53/53/11 49/49/9 52/52/26 54/54/27 
f 18/18/13 17/17/11 55/55/27 56/56/28 
f 22/22/15 21/21/13 57/57/28 58/58/29 
f 25/25/17 22/22/15 58/58/29 59/59/30 
f 28/28/19 27/27/17 60/60/30 61/61/31 
f 31/31/1 28/28/19 61/61/31 62/62/22 
f 34/34/32 33/33/32 4/4/32 3/3/32 
f 33/33/33 63/63/33 1/1/33 4/4/33 
f 63/63/34 64/64/34 44/44/34 1/1/34 
f 64/65/35 65/66/35 45/67/35 44/68/35 
f 65/69/36 66/70/36 46/46/36 45/45/36 
f 66/70/37 67/71/37 5/5/37 46/46/37 
f 67/71/38 36/36/38 6/6/38 5/5/38 
f 36/36/39 34/34/39 3/3/39 6/6/39 
f 37/37/40 50/50/40 11/11/40 14/14/40 
f 50/50/41 49/49/41 12/12/41 11/11/41 
f 49/72/42 53/73/42 15/74/42 12/75/42 
f 53/53/43 39/39/43 16/16/43 15/15/43 
f 39/39/44 35/35/44 38/38/44 16/16/44 
f 35/35/45 37/37/45 14/14/45 38/38/45 
f 40/40/46 68/76/46 21/21/46 24/24/46 
f 68/76/47 69/77/47 57/57/47 21/21/47 
f 69/78/48 70/79/48 58/80/48 57/81/48 
f 70/79/49 71/82/49 59/83/49 58/80/49 
f 71/84/50 72/85/50 25/25/50 59/59/50 
f 72/85/51 42/42/51 26/26/51 25/25/51 
f 42/42/52 41/41/52 23/23/52 26/26/52 
f 41/41/53 40/40/53 24/24/53 23/23/53 
f 36/36/54 67/71/54 73/86/54 74/87/54 
f 67/71/55 66/70/55 75/88/55 73/86/55 
f 66/70/56 51/51/56 76/89/56 75/88/56 
f 51/51/57 50/50/57 77/90/57 76/89/57 
f 50/50/58 37/37/58 78/91/58 77/90/58 
f 37/37/59 36/36/59 74/87/59 78/91/59 
f 39/39/60 53/53/60 79/92/60 80/93/60 
f 53/53/61 54/54/61 81/94/61 79/92/61 
f 54/54/62 69/77/62 82/95/62 81/94/62 
f 69/77/63 68/76/63 83/96/63 82/95/63 
f 68/76/64 40/40/64 84/97/64 83/96/64 
f 40/40/65 39/39/65 80/93/65 84/97/65 
f 63/63/66 33/33/66 85/98/66 86/99/66 
f 33/33/67 43/43/67 87/100/67 85/98/67 
f 43/43/68 42/42/68 88/101/68 87/100/68 
f 42/42/69 72/85/69 89/102/69 88/101/69 
f 72/85/70 71/84/70 90/103/70 89/102/70 
f 71/84/71 91/104/71 92/105/71 90/103/71 
f 91/104/72 64/64/72 93/106/72 92/105/72 
f 64/64/73 63/63/73 86/99/73 93/106/73 
f 74/87/74 73/86/74 7/7/74 10/10/74 
f 73/86/75 75/88/75 47/47/75 7/7/75 
f 75/88/76 76/89/76 48/48/76 47/47/76 
f 76/89/77 77/90/77 8/8/77 48/48/77 
f 77/90/78 78/91/78 9/9/78 8/8/78 
f 78/91/79 74/87/79 10/10/79 9/9/79 
f 80/93/80 79/92/80 17/17/80 20/20/80 
f 79/92/81 81/94/81 55/55/81 17/17/81 
f 81/107/82 82/108/82 56/109/82 55/110/82 
f 82/95/83 83/96/83 18/18/83 56/56/83 
f 83/96/84 84/97/84 19/19/84 18/18/84 
f 84/97/85 80/93/85 20/20/85 19/19/85 
f 86/99/86 85/98/86 32/32/86 31/31/86 
f 85/98/87 87/100/87 29/29/87 32/32/87 
f 87/100/88 88/101/88 30/30/88 29/29/88 
f 88/101/89 89/102/89 27/27/89 30/30/89 
f 89/102/90 90/103/90 60/60/90 27/27/90 
f 90/103/91 92/105/91 61/61/91 60/60/91 
f 92/105/92 93/106/92 62/62/92 61/61/92 
f 93/106/93 86/99/93 31/31/93 62/62/93 
# 82 polygons - 10 triangles

